<?xml version="1.0" encoding="UTF-8"?>
<svg version="1.1" xmlns="http://www.w3.org/2000/svg" width="396" height="485">
<path d="M0 0 C0 0.66 0 1.32 0 2 C0.61488281 2.13277344 1.22976562 2.26554687 1.86328125 2.40234375 C2.67152344 2.57894531 3.47976562 2.75554688 4.3125 2.9375 C5.11300781 3.11152344 5.91351563 3.28554688 6.73828125 3.46484375 C9 4 9 4 12 5 C12 5.66 12 6.32 12 7 C14.97 7.99 17.94 8.98 21 10 C21 10.66 21 11.32 21 12 C22.3921875 12.433125 22.3921875 12.433125 23.8125 12.875 C27 14 27 14 30 16 C30 16.66 30 17.32 30 18 C30.70382813 18.23460938 31.40765625 18.46921875 32.1328125 18.7109375 C40.09900232 22.29246698 47.03838315 29.61090148 52.55078125 36.2578125 C54.5508361 38.6621911 56.7606656 40.81959546 59 43 C66.5828652 50.38331612 72.87311652 58.38924484 79 67 C79.81526806 68.1206206 80.63171573 69.24038378 81.44921875 70.359375 C86.34488199 77.08938176 90.8987489 83.9047869 95.19140625 91.0390625 C96.78553759 93.64889308 98.45217544 96.17061706 100.1875 98.6875 C102.67541074 102.37601109 104.67034834 106.16408206 106.6015625 110.16796875 C107.92191524 112.84186745 109.31846853 115.46426605 110.74316406 118.08374023 C115.48435831 126.81310199 119.80225091 135.71821137 123.95703125 144.74023438 C124.63077922 146.20002163 125.31008646 147.6572617 125.99609375 149.11132812 C126.88826886 151.0048865 127.75975212 152.90651807 128.625 154.8125 C129.11226563 155.87082031 129.59953125 156.92914063 130.1015625 158.01953125 C131.55035686 162.82574906 130.56789204 165.81464929 128.43359375 170.26953125 C127.77537831 171.45452022 127.10958561 172.63532229 126.4375 173.8125 C123.45539587 179.20740967 120.69795801 184.64868739 118.125 190.25 C113.7625906 199.68530541 108.90057231 208.83571813 104 218 C102.4557405 220.89445938 100.91401799 223.79025027 99.375 226.6875 C98.82126709 227.72946533 98.82126709 227.72946533 98.25634766 228.79248047 C95.39882082 234.19283967 92.6598003 239.64680391 89.94873047 245.12182617 C87.71065275 249.62519397 85.38520862 254.07298307 83 258.5 C78.48946464 266.87922495 74.26725938 275.3950734 70.04833984 283.92382812 C69.09661875 285.84599916 68.14284332 287.76712673 67.1875 289.6875 C66.87031006 290.32510254 66.55312012 290.96270508 66.22631836 291.61962891 C62.78546338 298.49461681 59.1959542 305.29185479 55.5925293 312.08276367 C55.14047119 312.93845947 54.68841309 313.79415527 54.22265625 314.67578125 C53.81797119 315.43802002 53.41328613 316.20025879 52.99633789 316.9855957 C51.8847832 319.11708443 51.8847832 319.11708443 51 322 C50.34 322 49.68 322 49 322 C48.34 324.64 47.68 327.28 47 330 C45.35 330.33 43.7 330.66 42 331 C32.06955762 314.24885712 22.56933013 297.28680425 13.21435547 280.20849609 C12.15199307 278.27642326 11.08112911 276.34959294 10.00390625 274.42578125 C9.46636719 273.46027344 8.92882812 272.49476563 8.375 271.5 C7.92898437 270.7059375 7.48296875 269.911875 7.0234375 269.09375 C6.0309421 267.0633014 5.4516573 265.20810237 5 263 C4.34 263 3.68 263 3 263 C2.54560547 262.07380859 2.54560547 262.07380859 2.08203125 261.12890625 C-0.78971629 255.32355814 -3.81615192 249.63910396 -7 244 C-9.69127733 239.17993096 -12.35979698 234.34825005 -15 229.5 C-16.90947997 225.99600583 -18.82167746 222.49366673 -20.75 219 C-21.13671875 218.29875 -21.5234375 217.5975 -21.921875 216.875 C-22.87984605 215.20896339 -23.93396688 213.59904968 -25 212 C-29.68518615 219.64899537 -34.0630914 227.44857858 -38.375 235.3125 C-39.07588418 236.58719028 -39.77697928 237.86176462 -40.47827148 239.13623047 C-41.93117703 241.7770466 -43.38318806 244.41835132 -44.83447266 247.06005859 C-48.23692603 253.25216965 -51.6495568 259.4386665 -55.0625 265.625 C-55.38954926 266.21797882 -55.71659851 266.81095764 -56.05355835 267.42190552 C-62.27720971 278.70542667 -68.53010941 289.97257554 -74.79296875 301.234375 C-75.33872559 302.21599609 -75.88448242 303.19761719 -76.44677734 304.20898438 C-77.45083383 306.01319275 -78.45627296 307.81663268 -79.46337891 309.61914062 C-79.90472168 310.40998047 -80.34606445 311.20082031 -80.80078125 312.015625 C-81.18016846 312.69399414 -81.55955566 313.37236328 -81.95043945 314.07128906 C-83.01416627 316.02603246 -84.01664421 318.00378496 -85 320 C-85.66 320 -86.32 320 -87 320 C-87.268125 320.886875 -87.53625 321.77375 -87.8125 322.6875 C-88.91710819 325.76877548 -90.22849144 328.26221405 -92 331 C-94.3125 330.875 -94.3125 330.875 -97 330 C-99.02201431 326.79266696 -100 324.80845564 -100 321 C-100.66 321 -101.32 321 -102 321 C-102.49628906 319.99582031 -102.99257812 318.99164063 -103.50390625 317.95703125 C-107.25394252 310.39647426 -111.08428786 302.89912322 -115.1171875 295.484375 C-117.27789963 291.48571272 -119.39034181 287.46325024 -121.5 283.4375 C-126.08313852 274.70075208 -130.74272598 266.00561961 -135.41012573 257.3137207 C-140.10185213 248.57381089 -144.74946045 239.8122318 -149.32397461 231.01025391 C-153.41909825 223.14358826 -157.69305499 215.37717239 -161.96484375 207.60546875 C-164.52339732 202.95055193 -167.05845567 198.28329986 -169.58300781 193.60986328 C-170.82982769 191.31342901 -172.09598151 189.02906464 -173.3671875 186.74609375 C-174.01708804 185.53984961 -174.66565515 184.33288549 -175.3125 183.125 C-175.86550781 182.11695313 -176.41851562 181.10890625 -176.98828125 180.0703125 C-179.32106021 172.99091381 -176.24174226 166.19710412 -173.6875 159.5625 C-173.39166016 158.76779297 -173.09582031 157.97308594 -172.79101562 157.15429688 C-171.00274541 152.40746299 -169.04931961 147.75957914 -166.9621582 143.13696289 C-166.07254019 141.16111249 -165.20991412 139.17651599 -164.359375 137.18359375 C-160.53749698 128.26666282 -156.38439099 119.57303355 -151.97753906 110.93164062 C-151.0199301 109.03938235 -150.08087733 107.13914513 -149.1484375 105.234375 C-148.849375 104.62609863 -148.5503125 104.01782227 -148.2421875 103.39111328 C-147.43825947 101.75383417 -146.63698471 100.11525299 -145.8359375 98.4765625 C-143.40385192 93.87112384 -140.70659069 89.44802762 -138 85 C-137.51321777 84.18756836 -137.02643555 83.37513672 -136.52490234 82.53808594 C-128.69981397 69.47972477 -120.27370917 57.07266011 -111 45 C-110.24847656 43.9996875 -109.49695313 42.999375 -108.72265625 41.96875 C-108.15417969 41.3190625 -107.58570312 40.669375 -107 40 C-106.34 40 -105.68 40 -105 40 C-104.72414063 39.40832031 -104.44828125 38.81664062 -104.1640625 38.20703125 C-100.66659951 31.57593531 -94.66898815 26.72900208 -89 22 C-88.07058594 21.2059375 -87.14117187 20.411875 -86.18359375 19.59375 C-85.21550781 18.7790625 -84.24742187 17.964375 -83.25 17.125 C-82.34765625 16.36445312 -81.4453125 15.60390625 -80.515625 14.8203125 C-78.20688717 13.14970407 -76.77873933 12.40252766 -74 12 C-74 11.34 -74 10.68 -74 10 C-68.25 7 -68.25 7 -66 7 C-66 6.34 -66 5.68 -66 5 C-64.73160474 4.49384702 -63.46016898 3.99530901 -62.1875 3.5 C-61.47980469 3.2215625 -60.77210938 2.943125 -60.04296875 2.65625 C-58 2 -58 2 -55 2 C-55 1.34 -55 0.68 -55 0 C-37.63614023 -5.30386989 -17.43280483 -4.83285678 0 0 Z " fill="#FEFEFE" transform="translate(221,20)"/>
<path d="M0 0 C1.32 0 2.64 0 4 0 C7.85324558 17.49194273 9.06854325 34.19855694 9.125 52.0625 C9.12786011 52.73728394 9.13072021 53.41206787 9.13366699 54.1072998 C9.17613252 68.36965182 8.4720614 82.28352075 5.8125 96.3125 C5.59400391 97.47604004 5.37550781 98.63958008 5.15039062 99.83837891 C3.37616272 108.87819501 0.98002226 117.49140039 -2.28125 126.10107422 C-2.97143742 127.92453814 -3.62713327 129.76094434 -4.28125 131.59765625 C-8.31293171 142.64601479 -14.16362119 152.41639128 -20.36328125 162.34765625 C-21.96340576 164.85254434 -21.96340576 164.85254434 -23 167 C-23.66 167 -24.32 167 -25 167 C-25.23976563 167.721875 -25.47953125 168.44375 -25.7265625 169.1875 C-27.18341449 172.40508721 -28.95950816 174.43203525 -31.375 177 C-33.69643033 179.48447393 -35.9500136 181.93673448 -38.05859375 184.60546875 C-39.82042182 186.7785082 -41.55744002 188.51288958 -43.6875 190.3125 C-45.88467267 192.18070596 -48.05549822 194.05159835 -50.16796875 196.015625 C-54.75389111 200.26876361 -59.35609721 203.6052319 -64.79296875 206.6953125 C-67.14869499 208.00957921 -67.14869499 208.00957921 -69.5625 210.125 C-73.07290448 212.82531114 -76.91998074 214.32944093 -81 216 C-81.89074219 216.37640625 -82.78148437 216.7528125 -83.69921875 217.140625 C-90.5959507 220 -90.5959507 220 -94 220 C-94 220.66 -94 221.32 -94 222 C-95.9363704 222.50435694 -97.87414146 223.00333874 -99.8125 223.5 C-101.43091797 223.91765625 -101.43091797 223.91765625 -103.08203125 224.34375 C-106 225 -106 225 -109 225 C-109 225.66 -109 226.32 -109 227 C-111.83206118 227.50831867 -114.66529734 228.00681505 -117.5 228.5 C-118.29148438 228.64308594 -119.08296875 228.78617188 -119.8984375 228.93359375 C-125.0123918 229.81386457 -129.81112402 230.1428131 -135 230 C-135 230.66 -135 231.32 -135 232 C-144.95476381 233.12314092 -154.87065163 233.15360754 -164.87304688 233.13037109 C-167.62635773 233.12499735 -170.37950649 233.13035216 -173.1328125 233.13671875 C-174.91406285 233.13605807 -176.69531311 233.13477712 -178.4765625 233.1328125 C-179.68791367 233.13584885 -179.68791367 233.13584885 -180.92373657 233.13894653 C-196.92560791 233.07439209 -196.92560791 233.07439209 -199 231 C-200.70085798 230.63250418 -202.41324186 230.31797542 -204.12890625 230.02734375 C-205.16337891 229.85009766 -206.19785156 229.67285156 -207.26367188 229.49023438 C-208.8965918 229.21663086 -208.8965918 229.21663086 -210.5625 228.9375 C-211.65498047 228.75123047 -212.74746094 228.56496094 -213.87304688 228.37304688 C-216.58144545 227.91179122 -219.29042404 227.45427937 -222 227 C-222 226.34 -222 225.68 -222 225 C-222.99 224.87625 -223.98 224.7525 -225 224.625 C-229.08880024 224.04805273 -233.00861887 223.05036346 -237 222 C-237 221.34 -237 220.68 -237 220 C-237.74765625 219.81824219 -238.4953125 219.63648438 -239.265625 219.44921875 C-240.74289063 219.07216797 -240.74289063 219.07216797 -242.25 218.6875 C-243.22453125 218.44386719 -244.1990625 218.20023438 -245.203125 217.94921875 C-248.01999221 216.99321493 -249.70313154 215.84430751 -252 214 C-253.68078553 213.28889843 -255.36216328 212.57901549 -257.05078125 211.88671875 C-260.54839833 210.2956184 -263.97693019 208.3791952 -267 206 C-267 205.34 -267 204.68 -267 204 C-267.78375 203.690625 -268.5675 203.38125 -269.375 203.0625 C-272 202 -272 202 -274 201 C-274 200.34 -274 199.68 -274 199 C-274.67546875 198.8040625 -275.3509375 198.608125 -276.046875 198.40625 C-280.14041421 196.45694561 -282.99799736 193.61888212 -286.25 190.5 C-286.9102417 189.87359619 -287.5704834 189.24719238 -288.25073242 188.60180664 C-302.63545487 174.82957452 -302.63545487 174.82957452 -305 168 C-305.66 168 -306.32 168 -307 168 C-308.67555151 165.73981361 -310.22677697 163.48515259 -311.75 161.125 C-312.42434082 160.09270264 -312.42434082 160.09270264 -313.11230469 159.03955078 C-314.4173953 157.03211659 -315.71060827 155.01754337 -317 153 C-317.88171875 151.63101563 -317.88171875 151.63101563 -318.78125 150.234375 C-322.80522325 143.77033286 -325.94703197 136.96639317 -329 130 C-329.44472656 128.99710938 -329.88945312 127.99421875 -330.34765625 126.9609375 C-338.04884213 109.10925892 -342.37206955 89.46584402 -343 70 C-343.03996094 68.88496094 -343.07992188 67.76992188 -343.12109375 66.62109375 C-343.36321374 53.19055535 -341.76769034 39.91864207 -339.5625 26.6875 C-339.45252686 26.00059082 -339.34255371 25.31368164 -339.22924805 24.60595703 C-338.46363939 20.30254277 -337.12215163 16.81277939 -335 13 C-331.74724543 14.34808039 -330.39466492 15.4630901 -328.859375 18.625 C-328.33730469 19.68460937 -328.33730469 19.68460937 -327.8046875 20.765625 C-327.28261719 21.87164062 -327.28261719 21.87164062 -326.75 23 C-326.38648438 23.73734375 -326.02296875 24.4746875 -325.6484375 25.234375 C-323 30.69055451 -323 30.69055451 -323 33 C-322.34 33 -321.68 33 -321 33 C-320.70939697 33.59280762 -320.41879395 34.18561523 -320.11938477 34.79638672 C-316.8870133 41.3323805 -313.45757457 47.74016034 -309.9375 54.125 C-304.18418575 64.56859415 -304.18418575 64.56859415 -302.0078125 68.984375 C-299.4778695 74.1173468 -296.69456857 79.11153298 -293.9375 84.125 C-290.86785153 89.71093765 -287.84759965 95.29726736 -285 101 C-283.16708536 104.40748133 -281.30066688 107.79648905 -279.4375 111.1875 C-275.14672039 119.02193436 -270.93064928 126.88930609 -266.79516602 134.80664062 C-263.56328141 140.97537233 -260.22871523 147.08430475 -256.875 153.1875 C-252.97469921 160.28636865 -249.23097768 167.43247764 -245.66674805 174.70532227 C-243.43977166 179.21655871 -241.00501784 183.533582 -238.32421875 187.7890625 C-236.72744693 190.45505911 -235.36360666 193.20880513 -234 196 C-232.53743341 193.2730819 -231.08071459 190.5430812 -229.625 187.8125 C-229.2125 187.04357422 -228.8 186.27464844 -228.375 185.48242188 C-226.37122281 181.7172599 -224.46489548 178.01638925 -223 174 C-222.34 174 -221.68 174 -221 174 C-220.87625 173.278125 -220.7525 172.55625 -220.625 171.8125 C-220.0095069 169.04278106 -219.11555626 166.6029646 -218 164 C-217.34 164 -216.68 164 -216 164 C-215.75564209 163.17991455 -215.75564209 163.17991455 -215.50634766 162.34326172 C-213.69410178 156.56109941 -211.30475598 151.41746241 -208.375 146.125 C-207.56833462 144.64951711 -206.76356425 143.17299619 -205.9609375 141.6953125 C-205.43185791 140.7364917 -205.43185791 140.7364917 -204.89208984 139.75830078 C-203.86545036 137.84173407 -203.86545036 137.84173407 -203 135 C-202.34 135 -201.68 135 -201 135 C-200.76434326 134.19731689 -200.76434326 134.19731689 -200.52392578 133.37841797 C-198.61017735 127.22812722 -195.96163567 121.76455911 -192.875 116.125 C-191.97462525 114.46198489 -191.0761034 112.79796489 -190.1796875 111.1328125 C-189.78507324 110.40980957 -189.39045898 109.68680664 -188.98388672 108.94189453 C-187.87652873 106.87405675 -187.87652873 106.87405675 -187 104 C-186.34 104 -185.68 104 -185 104 C-184.814375 102.9171875 -184.814375 102.9171875 -184.625 101.8125 C-184.0095069 99.04278106 -183.11555626 96.6029646 -182 94 C-181.34 94 -180.68 94 -180 94 C-179.443125 92.1128125 -179.443125 92.1128125 -178.875 90.1875 C-176.97010177 84.50891711 -174.54419146 78.85268269 -171 74 C-168.80859375 73.1875 -168.80859375 73.1875 -167 73 C-166.61328125 73.65226562 -166.2265625 74.30453125 -165.828125 74.9765625 C-162.52418562 80.52660492 -162.52418562 80.52660492 -159 85.9375 C-156.65026928 89.53552517 -154.62598252 93.25454785 -152.59375 97.0390625 C-151.50447108 99.06277187 -150.39953352 101.07811028 -149.28125 103.0859375 C-148.46140625 104.55933594 -148.46140625 104.55933594 -147.625 106.0625 C-147.12226563 106.96097656 -146.61953125 107.85945313 -146.1015625 108.78515625 C-145 111 -145 111 -145 113 C-144.34 113 -143.68 113 -143 113 C-140.55859375 117.39453125 -138.1171875 121.7890625 -135.67578125 126.18359375 C-135.01050415 127.38012573 -135.01050415 127.38012573 -134.33178711 128.60083008 C-133.45798395 130.17495724 -132.58632748 131.75027836 -131.71704102 133.3269043 C-128.99879588 138.24933189 -126.18841485 143.10584591 -123.3125 147.9375 C-119.59339239 154.2301163 -115.94664559 160.55997478 -112.375 166.9375 C-111.93712158 167.71279053 -111.49924316 168.48808105 -111.0480957 169.28686523 C-108 174.76361484 -108 174.76361484 -108 177 C-107.34 177 -106.68 177 -106 177 C-105.61328125 177.71285156 -105.2265625 178.42570313 -104.828125 179.16015625 C-104.30734375 180.11792969 -103.7865625 181.07570313 -103.25 182.0625 C-102.73953125 183.00222656 -102.2290625 183.94195312 -101.703125 184.91015625 C-99.83748596 188.29483626 -97.92466097 191.64857949 -96 195 C-95.27296875 193.42025391 -95.27296875 193.42025391 -94.53125 191.80859375 C-91.27729773 184.78928348 -87.97748808 177.84402244 -84.25 171.0625 C-80.50751288 164.24040519 -77.28553496 157.20466231 -74.0625 150.125 C-70.38252719 142.04614397 -66.58557096 134.10701071 -62.34814453 126.30737305 C-59.3577352 120.76866693 -56.62682217 115.12781423 -53.9375 109.4375 C-49.36472547 99.76305372 -44.61812066 90.18505868 -39.8125 80.625 C-34.92641906 70.9016961 -30.10781279 61.15890802 -25.53125 51.28515625 C-23.44508726 46.80948568 -21.2354249 42.40241842 -19 38 C-17.73099282 35.4658783 -16.46507142 32.93022982 -15.19921875 30.39453125 C-14.41433778 28.82732592 -13.62542779 27.26213033 -12.83203125 25.69921875 C-11.37664819 22.82523125 -10.02035753 20.06107258 -9 17 C-8.34 17 -7.68 17 -7 17 C-5.515 12.05 -5.515 12.05 -4 7 C-3.34 7 -2.68 7 -2 7 C-1.34 4.69 -0.68 2.38 0 0 Z " fill="#FEFEFE" transform="translate(363,238)"/>
</svg>
