<?xml version="1.0" encoding="UTF-8"?>
<svg version="1.1" xmlns="http://www.w3.org/2000/svg" width="1070" height="390">
<path d="M0 0 C6.39772305 4.52081699 12.22043526 9.62955789 17.89453125 15.01953125 C18.38679199 15.47924316 18.87905273 15.93895508 19.38623047 16.41259766 C45.63063751 41.03768634 63.5503456 73.86253065 78.89453125 106.01953125 C79.21631348 106.68968262 79.5380957 107.35983398 79.86962891 108.05029297 C84.42242324 117.66174768 84.42242324 117.66174768 82.89453125 124.01953125 C81.52493263 127.24236444 79.91484435 130.32764003 78.29296875 133.4296875 C77.82479736 134.34090866 77.35662598 135.25212982 76.87426758 136.19096375 C75.34709942 139.15871924 73.80842327 142.12034062 72.26953125 145.08203125 C71.20581321 147.1438294 70.14282942 149.20600651 69.08056641 151.26855469 C66.48317158 156.30734868 63.87687818 161.34146534 61.26660156 166.37359619 C59.43073822 169.91392145 57.599784 173.456772 55.76953125 177 C54.03267351 180.36095713 52.2945954 183.72124109 50.55175781 187.07910156 C46.88307795 194.15079127 43.2471274 201.23832401 39.62890625 208.3359375 C38.69223758 210.17155842 37.75555129 212.00717036 36.81884766 213.84277344 C35.43993203 216.54524523 34.06209377 219.24823305 32.68817139 221.95324707 C27.01180409 233.12901993 21.13805623 244.14959773 14.89453125 255.01953125 C12.09376591 251.66833087 9.8125866 248.33161856 7.71484375 244.50390625 C7.12300293 243.43043945 6.53116211 242.35697266 5.92138672 241.25097656 C5.29377441 240.10209961 4.66616211 238.95322266 4.01953125 237.76953125 C3.35359081 236.5592601 2.68707753 235.34930399 2.02001953 234.13964844 C0.99197995 232.27520168 -0.03570859 230.41057087 -1.06167603 228.54498291 C-4.42117026 222.4362868 -7.82072832 216.35031516 -11.23046875 210.26953125 C-11.80297363 209.24827148 -12.37547852 208.22701172 -12.96533203 207.17480469 C-14.6775351 204.12238497 -16.39121713 201.0708009 -18.10546875 198.01953125 C-18.67040039 197.01341797 -19.23533203 196.00730469 -19.81738281 194.97070312 C-26.78269075 182.57461292 -33.83808294 170.24120716 -41.10546875 158.01953125 C-45.38309865 164.19614832 -49.13488101 170.51803158 -52.66796875 177.14453125 C-57.38083508 185.88294008 -62.19937371 194.55279606 -67.10107422 203.18652344 C-70.5906093 209.33499911 -74.05282721 215.49782702 -77.49560547 221.67260742 C-82.22666421 230.15342544 -86.97288841 238.62479223 -91.85546875 247.01953125 C-92.26176514 247.72577637 -92.66806152 248.43202148 -93.08666992 249.15966797 C-95.86953925 253.9015665 -95.86953925 253.9015665 -98.10546875 255.01953125 C-98.54189697 254.19678711 -98.9783252 253.37404297 -99.42797852 252.52636719 C-107.12936076 238.01094681 -114.83660024 223.49897691 -122.60546875 209.01953125 C-128.32283771 198.3633611 -134.0056838 187.68936282 -139.67337036 177.00671387 C-145.57281914 165.88820281 -151.50406747 154.78707098 -157.4609375 143.69921875 C-158.33492187 142.07113281 -158.33492187 142.07113281 -159.2265625 140.41015625 C-159.99117798 138.98751465 -159.99117798 138.98751465 -160.77124023 137.53613281 C-161.43168335 136.29041504 -161.43168335 136.29041504 -162.10546875 135.01953125 C-162.49653809 134.31006348 -162.88760742 133.6005957 -163.29052734 132.86962891 C-165.35665445 128.17906233 -162.78909472 122.92314813 -161.09375 118.44921875 C-160.21334097 116.25965631 -159.32062856 114.07501491 -158.41796875 111.89453125 C-157.6919043 110.13109375 -157.6919043 110.13109375 -156.95117188 108.33203125 C-142.50831457 73.61439107 -124.87467634 40.69921457 -99.10546875 13.01953125 C-98.4196875 12.26800781 -97.73390625 11.51648438 -97.02734375 10.7421875 C-69.73130425 -18.01975042 -33.02563759 -21.06163303 0 0 Z " fill="#0063D3" transform="translate(785.10546875,31.98046875)"/>
<path d="M0 0 C0.90814453 -0.02900391 1.81628906 -0.05800781 2.75195312 -0.08789062 C12.06630076 -0.17456673 19.15970474 2.82196804 25.8125 9.3125 C28.4251649 13.07077122 28.11915775 17.16537144 28.13134766 21.56933594 C28.14139328 22.39897354 28.1514389 23.22861115 28.16178894 24.08338928 C28.19263982 26.82121091 28.20966136 29.55893467 28.2265625 32.296875 C28.24527262 34.19688765 28.26484591 36.09689197 28.2852478 37.99688721 C28.33659151 42.99451798 28.3762053 47.9921757 28.41339111 52.9899292 C28.45341668 58.09101032 28.50451564 63.19197912 28.5546875 68.29296875 C28.65147332 78.2994003 28.73586967 88.30589523 28.8125 98.3125 C29.42724686 97.62234802 30.04199371 96.93219604 30.67536926 96.22113037 C31.48350571 95.31767883 32.29164215 94.41422729 33.12426758 93.48339844 C33.92463943 92.58699646 34.72501129 91.69059448 35.54963684 90.76702881 C48.34530659 76.88755938 65.47523382 71.4022733 83.80883789 70.43774414 C106.17210621 69.62616465 127.1310364 77.47174963 143.8125 92.3125 C144.49828125 92.91578125 145.1840625 93.5190625 145.890625 94.140625 C162.95924317 110.13405463 172.78898673 134.56645856 173.98950195 157.72729492 C174.57023721 191.51868312 170.37163007 221.2057915 146.26123047 246.85498047 C134.25945622 258.92956629 118.25034704 265.89453421 101.8125 269.3125 C101.090625 269.46332031 100.36875 269.61414063 99.625 269.76953125 C97.67251213 270.08512735 95.78947767 270.22777239 93.8125 270.3125 C92.20375 270.38984375 92.20375 270.38984375 90.5625 270.46875 C67.67036847 271.04105329 48.66996076 263.77178186 31.7109375 248.23046875 C29.8125 246.3125 29.8125 246.3125 28.8125 244.3125 C28.77382812 245.72402344 28.77382812 245.72402344 28.734375 247.1640625 C28.14559261 260.09051233 28.14559261 260.09051233 23.8125 264.3125 C13.47685555 271.28087567 -0.11675803 271.79507423 -12.0625 269.625 C-18.78542428 267.84724349 -24.44652714 264.20739423 -28.1875 258.3125 C-28.779275 255.02665153 -28.72723927 251.7818296 -28.69543457 248.45045471 C-28.70167453 247.44994565 -28.7079145 246.4494366 -28.71434355 245.41860908 C-28.73031324 242.06211834 -28.71765326 238.7063498 -28.70507812 235.34985352 C-28.71049749 232.94508439 -28.71761909 230.54031858 -28.72631836 228.13555908 C-28.74268056 222.27939119 -28.7402631 216.42341122 -28.7286678 210.56724853 C-28.71963319 205.80719965 -28.71840958 201.04720824 -28.72276306 196.28715324 C-28.72337599 195.60959953 -28.72398893 194.93204581 -28.72462043 194.23396016 C-28.72589934 192.8574972 -28.72719619 191.48103426 -28.7285108 190.10457134 C-28.73991707 177.1972142 -28.72680264 164.28997069 -28.70530933 151.38263219 C-28.68744231 140.31028835 -28.69053903 129.23811228 -28.70898438 118.16577148 C-28.73039726 105.30607066 -28.73881418 92.44646947 -28.72653532 79.58675331 C-28.72526114 78.2150564 -28.72400365 76.84335947 -28.72276306 75.47166252 C-28.72214596 74.79677472 -28.72152886 74.12188691 -28.72089306 73.42654796 C-28.7174411 68.67335934 -28.72326524 63.92023396 -28.73268127 59.16705513 C-28.74508053 52.7672909 -28.7362345 46.36776891 -28.71310425 39.96803284 C-28.70781085 37.61783309 -28.70934165 35.26760671 -28.71815491 32.91741753 C-28.72906864 29.71175995 -28.71539605 26.5071214 -28.69543457 23.30152893 C-28.70435746 22.36913425 -28.71328034 21.43673956 -28.72247362 20.47609049 C-28.65535309 14.92746228 -27.91962085 11.6985134 -24.1875 7.3125 C-21.75 5.44921875 -21.75 5.44921875 -19.1875 4 C-18.341875 3.50886719 -17.49625 3.01773438 -16.625 2.51171875 C-11.23889717 -0.13817479 -5.89436278 0.06144228 0 0 Z M40.171875 131.75 C29.75024701 143.06885424 26.16181904 157.96518691 26.33740234 173.00854492 C27.00838562 189.10658297 33.23085813 202.18504017 44.8125 213.3125 C50.31331632 217.82696305 55.95750102 220.50429161 62.8125 222.3125 C63.6375 222.539375 64.4625 222.76625 65.3125 223 C77.81796392 224.56318299 89.39893903 221.38858688 99.8125 214.3125 C110.4830499 205.71318335 117.06206512 192.83708645 118.8125 179.3125 C119.94486737 163.82171433 118.26106709 149.18446096 108.8125 136.3125 C108.29945313 135.60609375 107.78640625 134.8996875 107.2578125 134.171875 C99.5636829 124.52660249 88.68315185 119.12740157 76.625 117.4375 C62.20611229 116.46680349 50.41702669 122.07755865 40.171875 131.75 Z " fill="#0063D3" transform="translate(206.1875,85.6875)"/>
<path d="M0 0 C0.9796875 0.40863281 1.959375 0.81726563 2.96875 1.23828125 C20.23727326 9.13818557 30.786831 22.42091717 37.7109375 39.7109375 C38.16402599 41.13338206 38.59068161 42.56434818 39 44 C39.25266632 44.88336533 39.50533264 45.76673065 39.76565552 46.67686462 C42.87628328 59.63273862 42.47644398 72.78381053 42.46883965 86.03417754 C42.46871873 88.82808383 42.47732915 91.62193946 42.48561716 94.41583139 C42.50472096 101.0012962 42.50777839 107.58663425 42.50097656 114.17211914 C42.49430026 120.95550118 42.51737252 127.7383444 42.55429029 134.52161711 C42.58495871 140.36994838 42.59635183 146.21810565 42.59245348 152.06651574 C42.59038808 155.5497358 42.59583672 159.03253315 42.62034607 162.5156765 C42.64669482 166.38591319 42.63290756 170.25543392 42.61523438 174.12573242 C42.62849762 175.27532944 42.64176086 176.42492645 42.65542603 177.60935974 C42.57288513 185.35930468 42.57288513 185.35930468 39.60585022 188.67753601 C32.12456715 192.47427282 24.88566837 193.50772266 16.5625 193.375 C15.1866272 193.3608606 15.1866272 193.3608606 13.78295898 193.34643555 C5.08028424 193.15263097 -2.93236596 192.50893997 -9.7668457 186.5715332 C-12.09002725 183.61086806 -11.88798314 180.31953451 -11.875 176.6875 C-11.895625 175.94693359 -11.91625 175.20636719 -11.9375 174.44335938 C-11.9843121 172.62939058 -11.99573545 170.81456771 -12 169 C-12.37769531 169.42410156 -12.75539063 169.84820312 -13.14453125 170.28515625 C-25.94647253 183.92656909 -43.91906338 190.50679538 -62.35546875 191.28515625 C-83.46612278 191.79454811 -103.49730079 187.47937576 -119.6875 172.9375 C-130.46250546 161.38357849 -134.58786971 147.16483982 -134.4375 131.6875 C-134.42992676 130.59171631 -134.42235352 129.49593262 -134.41455078 128.36694336 C-134.15875093 115.7608653 -131.43135612 105.38149246 -124 95 C-123.54882812 94.36578125 -123.09765625 93.7315625 -122.6328125 93.078125 C-111.48090528 78.83896663 -92.5110756 73.2055918 -75.38671875 70.41015625 C-53.59754308 67.92924974 -31.68362771 69.80092816 -11 77 C-11.19771018 67.86938427 -12.87537775 59.09619994 -18.7578125 51.828125 C-30.12189473 41.06215236 -44.53600767 41.56777408 -59.18359375 41.71875 C-69.65334576 42.00453551 -78.27781513 44.87829388 -87.9375 48.8125 C-93.38250442 50.9359186 -96.43451687 52.0752649 -102 50 C-109.96801123 43.60211253 -113.33831102 34.84472339 -115 25 C-115.41637924 19.34498892 -115.58633995 14.06684011 -111.74633789 9.51342773 C-108.01390248 6.27878953 -102.97838952 4.86664356 -98.4375 3.0625 C-97.31593506 2.61592041 -96.19437012 2.16934082 -95.03881836 1.70922852 C-66.12068132 -9.50106321 -29.07719656 -12.24083131 0 0 Z M-74.7578125 112.48046875 C-79.77533399 118.08386849 -81.54106465 124.23466652 -81.28515625 131.578125 C-80.54039389 137.90350398 -77.42203745 142.57796255 -73 147 C-63.0615742 153.76611578 -51.50373163 153.63997007 -40 152 C-28.51227771 149.41291668 -19.77555224 143.67936035 -13 134 C-8.89578411 126.60658981 -9.7088768 118.18379667 -10 110 C-30.01141573 102.29466983 -56.73436045 97.30071691 -74.7578125 112.48046875 Z " fill="#0063D3" transform="translate(532,163)"/>
<path d="M0 0 C0.66 0 1.32 0 2 0 C7.25097634 25.50474222 7.90352962 55.5439338 2 81 C1.83371094 81.77424316 1.66742187 82.54848633 1.49609375 83.34619141 C-5.50361571 115.51244887 -24.21919089 146.65274027 -52 165 C-64.98179702 173.25687864 -78.48796546 179.09509609 -93.4375 182.75 C-94.24662842 182.94883789 -95.05575684 183.14767578 -95.8894043 183.35253906 C-109.25677248 186.41920926 -122.64067182 187.38722582 -136.3125 187.3125 C-137.02989349 187.31034485 -137.74728699 187.3081897 -138.48641968 187.30596924 C-149.86920061 187.25133315 -160.90903684 186.73284082 -172 184 C-173.20970459 183.70198486 -173.20970459 183.70198486 -174.44384766 183.39794922 C-210.1841908 174.24167248 -239.15176049 152.18196875 -258.05859375 120.44140625 C-264.30517895 109.3684856 -269.63854402 98.32335368 -273 86 C-273.29414795 84.96673584 -273.29414795 84.96673584 -273.59423828 83.91259766 C-279.8182123 61.25081817 -279.76503299 33.21474655 -272 11 C-268.82063193 13.90584639 -266.90370199 16.68603765 -264.96875 20.5234375 C-264.41171387 21.6155957 -263.85467773 22.70775391 -263.28076172 23.83300781 C-262.69311035 25.00186523 -262.10545898 26.17072266 -261.5 27.375 C-260.24635711 29.83807547 -258.98666351 32.29803595 -257.7265625 34.7578125 C-257.41123566 35.37483032 -257.09590881 35.99184814 -256.77102661 36.62756348 C-253.90394989 42.2235111 -250.91124684 47.74452844 -247.875 53.25 C-243.81953575 60.61832196 -239.86948019 68.03231769 -236 75.5 C-232.08751368 83.04996547 -228.09431488 90.54706745 -224 98 C-219.38896208 106.39352996 -214.92500224 114.85406545 -210.51977539 123.35717773 C-206.4259687 131.2371329 -202.20093768 139.04065443 -197.91992188 146.8203125 C-195.52570295 151.17522923 -193.17852078 155.53293214 -191 160 C-183.9239725 147.299042 -177.16626401 134.47859249 -170.70922852 121.4519043 C-167.2669152 114.51343544 -163.75301567 107.62498512 -160.10473633 100.79272461 C-157.23729601 95.40441973 -154.4601327 89.97461815 -151.70703125 84.52734375 C-150.54654404 82.2407506 -149.3852617 79.95456292 -148.22375488 77.66848755 C-147.45209083 76.14444497 -146.68391603 74.61863046 -145.91931152 73.09103394 C-144.84171525 70.93892578 -143.75218562 68.79324938 -142.66015625 66.6484375 C-142.33553909 65.99209824 -142.01092194 65.33575897 -141.6764679 64.65953064 C-139.34126376 60.11375459 -139.34126376 60.11375459 -136 59 C-135.16082031 60.53140625 -135.16082031 60.53140625 -134.3046875 62.09375 C-128.85246465 71.99802203 -123.23743204 81.79711866 -117.5246582 91.55322266 C-113.17689747 98.97838915 -108.85901919 106.4200678 -104.5625 113.875 C-103.94826172 114.94008789 -103.33402344 116.00517578 -102.70117188 117.10253906 C-99.76358206 122.19813932 -96.82933102 127.29563205 -93.90113831 132.39663696 C-92.53493486 134.77597172 -91.16719744 137.15442282 -89.79928589 139.53277588 C-88.83870135 141.2044039 -87.88037822 142.87733079 -86.92211914 144.55029297 C-86.04221313 146.08000732 -86.04221313 146.08000732 -85.14453125 147.640625 C-84.63253174 148.53297852 -84.12053223 149.42533203 -83.59301758 150.34472656 C-81.82199032 153.29671007 -79.92909065 156.14932266 -78 159 C-77.54262451 158.05495605 -77.08524902 157.10991211 -76.61401367 156.13623047 C-61.3461687 124.59918871 -61.3461687 124.59918871 -55.125 112.25 C-51.05931977 104.17942341 -47.13996726 96.04704262 -43.26416016 87.88378906 C-39.76670852 80.54272585 -36.1537005 73.26440364 -32.5 66 C-28.41253511 57.87305924 -24.39870842 49.71918816 -20.5 41.5 C-14.92074971 29.73814143 -9.09955653 18.10297264 -3.24584961 6.47583008 C-2.16047763 4.31891116 -1.07870813 2.16025745 0 0 Z " fill="#0063D3" transform="translate(880,197)"/>
<path d="M0 0 C1.29744141 -0.04350586 1.29744141 -0.04350586 2.62109375 -0.08789062 C10.50912202 -0.16476047 17.39854504 1.95266966 23.3125 7.375 C23.85777344 7.86097656 24.40304688 8.34695312 24.96484375 8.84765625 C27.68859625 11.67703904 28.62489103 13.61750855 28.63226891 17.4442873 C28.6387178 18.28954198 28.64516669 19.13479666 28.651811 20.00566512 C28.6487138 20.93444337 28.6456166 21.86322161 28.64242554 22.82014465 C28.64695665 23.8066942 28.65148776 24.79324376 28.65615618 25.80968875 C28.66886314 29.13074118 28.66717575 32.45163095 28.66552734 35.77270508 C28.67150869 38.14762077 28.67831332 40.52253452 28.68588257 42.89744568 C28.70174941 48.68832693 28.70799274 54.47915844 28.70910732 60.27006034 C28.71005726 64.97722821 28.71416484 69.68438263 28.72050858 74.39154625 C28.73812555 87.73511653 28.74734686 101.07865461 28.74584763 114.4222366 C28.74576772 115.14181698 28.7456878 115.86139736 28.74560547 116.6027832 C28.74552371 117.32324161 28.74544195 118.04370002 28.74535771 118.7859905 C28.74454492 130.46034862 28.76367943 142.13457769 28.7918822 153.80889849 C28.82060727 165.79394317 28.83442267 177.7789249 28.83269465 189.76400489 C28.83203056 196.49352604 28.83753083 203.22291195 28.85905075 209.95240211 C28.87838164 216.281555 28.87859268 222.6104219 28.86401749 228.93958473 C28.86192185 231.26399146 28.86667495 233.58841584 28.8787384 235.91279221 C28.89412968 239.08350148 28.8849225 242.25321719 28.86947632 245.42390442 C28.87976344 246.3459905 28.89005057 247.26807658 28.90064943 248.21810466 C28.84092268 253.75776898 28.06952582 256.92027138 24.375 261.3125 C16.45170806 268.88364563 8.10288136 270.63546808 -2.48828125 270.53125 C-11.34322432 269.91371972 -18.54854452 266.67986525 -24.74883556 260.29769802 C-28.47478154 255.854167 -28.47130837 251.92325707 -28.39363098 246.29933167 C-28.40369649 245.30669199 -28.413762 244.31405232 -28.42413253 243.29133266 C-28.45035662 239.97307229 -28.43380612 236.65643675 -28.41723633 233.33813477 C-28.427006 230.95601274 -28.43931231 228.57389997 -28.45396423 226.19180298 C-28.48230527 220.39797885 -28.4824631 214.60466565 -28.46851341 208.81079859 C-28.45768397 204.10037039 -28.45823001 199.39007161 -28.46683311 194.67963982 C-28.46804124 194.00848525 -28.46924936 193.33733068 -28.47049409 192.64583809 C-28.47298482 191.28226364 -28.4754958 189.91868923 -28.47802683 188.55511486 C-28.50029473 175.77640141 -28.48504613 162.99793998 -28.45744052 150.21925073 C-28.4347261 139.26342887 -28.44639845 128.30807421 -28.48266602 117.35229492 C-28.52481021 104.61996431 -28.5438972 91.88792327 -28.52764148 79.15552372 C-28.52598188 77.79674117 -28.52435853 76.43795858 -28.52277184 75.07917595 C-28.52198689 74.41068777 -28.52120195 73.74219958 -28.52039323 73.05345418 C-28.51650779 68.35121468 -28.52919998 63.64918886 -28.54850197 58.94699287 C-28.5726331 52.61260966 -28.56267217 46.27917564 -28.52651405 39.94485855 C-28.51886139 37.62130088 -28.52311287 35.29766868 -28.54018784 32.97416115 C-28.56159346 29.79923847 -28.53977375 26.627414 -28.50715637 23.45265198 C-28.52345354 22.53522911 -28.53975072 21.61780625 -28.55654174 20.67258269 C-28.43023287 14.52757971 -26.76643386 11.38636682 -22.54027575 6.94404739 C-15.76707122 1.17422329 -8.59230364 0.09353016 0 0 Z " fill="#0063D3" transform="translate(100.625,85.6875)"/>
<path d="M0 0 C3.26216515 2.73812255 4.81108138 4.49941076 5.32562923 8.84407711 C5.32805913 10.12440602 5.33048903 11.40473494 5.33299255 12.72386169 C5.33837809 13.43837323 5.34376363 14.15288476 5.34931237 14.88904816 C5.36362131 17.28354774 5.35648123 19.67749678 5.34936523 22.07202148 C5.35506729 23.78861944 5.36203091 25.5052136 5.37016296 27.22180176 C5.38812789 31.88502957 5.38691972 36.54806955 5.38122058 41.21132159 C5.37813349 45.10308888 5.38421583 48.99481984 5.39025933 52.88658196 C5.40431394 62.06707812 5.40273552 71.24748125 5.39135742 80.42797852 C5.37987531 89.90179423 5.3939513 99.37532689 5.4207539 108.8491053 C5.44289909 116.98085191 5.44955094 125.11250959 5.44367748 133.24428421 C5.44030387 138.10197066 5.4427498 142.95947565 5.45992851 147.81713676 C5.47537676 152.38496835 5.47146579 156.95238013 5.45262337 161.52019501 C5.44893157 163.19676952 5.45206314 164.873375 5.46250916 166.54992104 C5.47568114 168.83869322 5.46420701 171.12606782 5.44651794 173.41477966 C5.44630866 174.6954856 5.44609938 175.97619154 5.44588375 177.29570675 C4.85730784 181.2195039 3.70510708 182.83819977 0.9453125 185.6328125 C-1.45703125 187.1796875 -1.45703125 187.1796875 -3.9921875 188.3828125 C-5.24322266 188.99382812 -5.24322266 188.99382812 -6.51953125 189.6171875 C-15.98547981 193.4094011 -29.49157286 193.02164164 -39.0390625 189.546875 C-44.2808933 187.16976569 -47.53336528 184.83179342 -50.0546875 179.6328125 C-50.43500423 176.33252811 -50.43500423 176.33252811 -50.44236755 172.50416565 C-50.44775309 171.79767236 -50.45313863 171.09117907 -50.45868737 170.3632769 C-50.47296633 168.00185313 -50.46586364 165.64098997 -50.45874023 163.27954102 C-50.46444385 161.58412221 -50.47140808 159.88870725 -50.47953796 158.19329834 C-50.4974855 153.59204329 -50.49629799 148.99097877 -50.49059558 144.38969922 C-50.48750602 140.54768243 -50.49359359 136.70570236 -50.49963433 132.86369079 C-50.51368319 123.79963977 -50.51211526 114.73568299 -50.50073242 105.67163086 C-50.48925063 96.32221291 -50.50332706 86.97308179 -50.5301289 77.62370163 C-50.55228349 69.59467821 -50.55892382 61.56574485 -50.55305248 53.53669304 C-50.54968115 48.74214589 -50.5521097 43.94778262 -50.56930351 39.15326118 C-50.58476674 34.64450731 -50.58082411 30.13617845 -50.56199837 25.62744141 C-50.55831075 23.97386189 -50.56142602 22.32025092 -50.57188416 20.66670036 C-50.58508474 18.40679148 -50.57355673 16.14829157 -50.55589294 13.88844299 C-50.55568366 12.62470635 -50.55547438 11.36096972 -50.55525875 10.05893803 C-49.79779072 4.87450016 -47.41845767 1.79700655 -43.4921875 -1.5546875 C-29.7007957 -8.82651227 -12.90578172 -8.83514089 0 0 Z " fill="#0063D3" transform="translate(971.0546875,163.3671875)"/>
<path d="M0 0 C6.43437267 4.65024429 11.48524297 9.94934689 13 18 C13.77054674 28.85081387 13.06027276 36.95346058 6.3125 45.75 C1.25375408 51.28501461 -5.44662906 54.62363736 -12.8828125 55.23828125 C-22.74836168 55.46411912 -30.02491578 54.12632188 -37.375 47.25 C-44.01091378 40.06444488 -46.38452266 32.67161878 -46.28125 23.015625 C-45.56688175 15.35600991 -42.64795875 8.27961361 -37 3 C-25.88431251 -4.66349837 -12.11028793 -7.93352196 0 0 Z " fill="#0063D3" transform="translate(965,88)"/>
<path d="M0 0 C4.18134365 2.50880619 6.7785669 6.30212813 9.23046875 10.42578125 C10.75434767 16.9784606 10.71833213 23.35593445 7.3125 29.2890625 C3.65308724 33.87068652 -1.40171377 37.11710251 -7.20703125 38.11328125 C-14.28967968 38.11328125 -19.56357124 36.67952126 -25.14453125 32.11328125 C-30.08448046 25.57118635 -30.94353945 20.14837778 -30.14453125 12.11328125 C-28.12097625 5.89229503 -23.36274178 1.93983317 -17.83203125 -1.19921875 C-11.76006232 -2.75251313 -5.79225035 -2.43945075 0 0 Z M-25.14453125 9.11328125 C-27.68330294 13.38584825 -27.69243715 17.25799202 -27.14453125 22.11328125 C-25.40620723 26.8067561 -24.26397024 28.02370201 -20.14453125 31.11328125 C-20.14453125 22.86328125 -20.14453125 14.61328125 -20.14453125 6.11328125 C-17.21578125 6.21640625 -14.28703125 6.31953125 -11.26953125 6.42578125 C-9.88725342 6.46312378 -9.88725342 6.46312378 -8.47705078 6.5012207 C-7.3881958 6.55088989 -7.3881958 6.55088989 -6.27734375 6.6015625 C-5.53371582 6.62774658 -4.79008789 6.65393066 -4.02392578 6.6809082 C-2.14453125 7.11328125 -2.14453125 7.11328125 -0.14453125 10.11328125 C0.23046875 13.11328125 0.23046875 13.11328125 -0.14453125 16.11328125 C-2.14453125 17.98828125 -2.14453125 17.98828125 -4.14453125 19.11328125 C-2.49285568 22.69191165 -0.36166633 25.86148313 1.85546875 29.11328125 C5.60764268 25.70221404 6.75487776 23.36060954 7.16796875 18.23828125 C7.00605291 13.38080596 5.6832097 9.9583058 2.203125 6.4453125 C-2.43865577 2.31383321 -5.6583704 0.7924242 -12.08984375 0.8984375 C-17.78952884 1.49441218 -21.50453116 4.96772559 -25.14453125 9.11328125 Z M-16.14453125 9.11328125 C-16.14453125 11.42328125 -16.14453125 13.73328125 -16.14453125 16.11328125 C-14.51962171 16.14026314 -12.89458492 16.15966882 -11.26953125 16.17578125 C-9.91214844 16.19318359 -9.91214844 16.19318359 -8.52734375 16.2109375 C-6.12767275 16.27577382 -6.12767275 16.27577382 -4.14453125 15.11328125 C-4.52357333 11.82252129 -4.52357333 11.82252129 -6.14453125 9.11328125 C-7.83062091 9.04122614 -9.51953784 9.02942057 -11.20703125 9.05078125 C-12.12613281 9.05980469 -13.04523437 9.06882812 -13.9921875 9.078125 C-14.70246094 9.08972656 -15.41273438 9.10132812 -16.14453125 9.11328125 Z M-16.14453125 20.11328125 C-16.14453125 23.74328125 -16.14453125 27.37328125 -16.14453125 31.11328125 C-17.46453125 31.44328125 -18.78453125 31.77328125 -20.14453125 32.11328125 C-13.51874841 35.02674605 -9.03500739 35.37752755 -2.14453125 33.11328125 C-2.14453125 28.67979848 -4.43076169 26.46574721 -7.12109375 23.078125 C-9.22231935 21.0377457 -10.22803999 20.42937193 -13.08203125 20.05078125 C-14.09265625 20.07140625 -15.10328125 20.09203125 -16.14453125 20.11328125 Z " fill="#0063D3" transform="translate(1033.14453125,86.88671875)"/>
</svg>
