<svg version="1.1" id="Layer_1" xmlns="http://www.w3.org/2000/svg" xmlns:xlink="http://www.w3.org/1999/xlink" x="0px" y="0px"
	 width="100%" viewBox="0 0 396 485" enable-background="new 0 0 396 485" xml:space="preserve">
<path fill="#000000" opacity="1.000000" stroke="none" 
	d="
M204.000000,486.000000 
	C136.019150,486.000000 68.538284,486.000000 1.028714,486.000000 
	C1.028714,324.398315 1.028714,162.796646 1.028714,1.097487 
	C132.897507,1.097487 264.795105,1.097487 396.846375,1.097487 
	C396.846375,162.666550 396.846375,324.333252 396.846375,486.000000 
	C332.796661,486.000000 268.648315,486.000000 204.000000,486.000000 
M139.375748,334.096741 
	C146.246460,322.106659 153.274170,310.202850 159.929703,298.094513 
	C164.006149,290.678223 167.311768,282.839996 171.339767,275.394775 
	C174.326111,269.874878 178.071442,264.770874 181.205505,259.324432 
	C186.382401,250.327927 191.338867,241.204590 196.782837,231.425919 
	C202.270950,241.023239 207.619263,250.096161 212.685410,259.324005 
	C216.746094,266.720367 220.290192,274.401215 224.379166,281.780945 
	C229.348572,290.749725 234.740417,299.483398 239.785309,308.411591 
	C247.597672,322.237488 255.243362,336.157562 263.065369,349.977966 
	C263.588379,350.902069 265.124207,351.975952 265.969543,351.816528 
	C267.093475,351.604523 268.381042,350.444092 268.941956,349.353546 
	C272.976227,341.510315 276.802185,333.560364 280.774384,325.684692 
	C287.545807,312.258942 294.338593,298.843689 301.191620,285.459473 
	C308.412262,271.357269 315.705261,257.292023 322.982452,243.218826 
	C332.178558,225.434586 341.219116,207.566193 350.709290,189.940079 
	C353.277374,185.170334 352.769531,181.367691 350.500427,176.869583 
	C344.166290,164.313278 338.391174,151.471466 331.918518,138.989624 
	C326.473358,128.489182 320.909790,117.971634 314.399017,108.122444 
	C306.537903,96.230568 297.706451,84.972443 289.121002,73.570999 
	C285.829132,69.199379 282.349640,64.888840 278.438507,61.081722 
	C271.902618,54.719597 265.369812,48.218277 258.065674,42.816814 
	C249.484680,36.471115 240.517990,30.299118 230.894653,25.823294 
	C223.495483,22.381926 215.602432,19.427406 206.947845,18.746563 
	C196.068924,17.890732 185.361526,17.387791 174.654144,19.736776 
	C163.024979,22.287970 153.062668,28.309429 143.526093,35.051292 
	C129.347321,45.074944 117.724564,57.834534 107.313698,71.508926 
	C92.893608,90.449333 80.752510,110.905708 70.279755,132.310150 
	C65.790489,141.485428 61.183468,150.616425 57.096149,159.971237 
	C53.138107,169.030136 49.572392,178.277420 46.266705,187.595337 
	C45.092030,190.906464 44.031799,195.010712 44.960587,198.148743 
	C46.572422,203.594589 49.611820,208.656998 52.338432,213.726440 
	C60.155235,228.259750 68.214790,242.662918 75.986603,257.219910 
	C81.867760,268.235596 87.325401,279.477478 93.213036,290.489594 
	C97.599541,298.694061 102.551971,306.596222 106.929810,314.805023 
	C113.101791,326.378021 119.023216,338.085968 124.943031,349.791199 
	C126.395653,352.663483 128.847580,353.156311 130.285400,350.939117 
	C133.604797,345.820435 136.160202,340.206329 139.375748,334.096741 
M299.471069,445.016388 
	C303.959564,441.873627 308.923645,439.227905 312.836731,435.483765 
	C320.763611,427.899048 328.623138,420.130493 335.561035,411.660126 
	C341.560150,404.335876 346.884552,396.276367 351.340698,387.919861 
	C356.252228,378.709320 360.510315,369.117218 362.286957,358.530640 
	C363.206024,353.054047 366.876373,348.042908 367.819305,342.565918 
	C370.022644,329.767792 372.171295,316.854340 372.772461,303.914673 
	C373.432434,289.709869 372.690857,275.401794 371.840271,261.181732 
	C371.439880,254.487854 369.399139,247.885330 367.979736,241.267578 
	C367.800476,240.431641 366.925323,239.201859 366.286163,239.146118 
	C365.500214,239.077591 364.241486,239.850311 363.846436,240.604660 
	C360.704956,246.603165 357.671600,252.659973 354.701141,258.745789 
	C351.905548,264.473480 349.342346,270.316589 346.469971,276.004425 
	C342.081390,284.694763 337.335571,293.207611 333.062164,301.952576 
	C324.808197,318.843231 316.827911,335.867432 308.634399,352.787933 
	C304.528717,361.266663 300.202759,369.638733 295.977966,378.059814 
	C289.433685,391.104156 282.827209,404.117889 276.376648,417.208435 
	C273.559082,422.926270 271.061859,428.801971 268.374573,434.703888 
	C267.845245,434.224335 266.890076,433.696808 266.425354,432.887604 
	C258.574707,419.217072 250.750427,405.531067 242.996597,391.805420 
	C239.136658,384.972565 235.551010,377.983215 231.623962,371.190277 
	C226.857895,362.946075 221.818695,354.860321 216.977112,346.659088 
	C210.694824,336.017426 204.522232,325.310883 198.205688,314.689758 
	C197.556000,313.597321 195.862518,311.972290 195.321228,312.197693 
	C194.007370,312.744995 192.728790,314.057587 192.066132,315.378082 
	C187.537292,324.402496 183.314682,333.582062 178.716263,342.569824 
	C172.934830,353.869751 166.855667,365.017029 160.971130,376.264740 
	C158.073303,381.803619 155.361725,387.439606 152.498978,392.997192 
	C148.357422,401.037445 144.152313,409.044922 139.979691,417.069183 
	C136.674194,423.425903 133.376785,429.786835 129.983337,436.323975 
	C96.873032,374.120850 64.069527,312.644501 30.284428,250.419022 
	C28.945801,252.736969 28.234528,253.496399 28.048498,254.367935 
	C26.907804,259.712036 25.657934,265.048401 24.874029,270.449707 
	C23.426517,280.423492 21.952915,290.413940 21.133961,300.449982 
	C20.710501,305.639374 21.387453,310.977753 22.062855,316.184540 
	C23.250816,325.342712 23.899710,334.715759 26.430271,343.523010 
	C30.930702,359.186096 37.048130,374.251862 45.580078,388.363373 
	C52.798973,400.303131 60.793842,411.593384 70.327942,421.657837 
	C82.601326,434.613922 96.904991,444.934235 112.891869,453.123688 
	C123.926086,458.776093 135.298492,463.543152 147.205780,466.362915 
	C159.273453,469.220673 171.750809,471.324493 184.113358,471.715637 
	C199.818085,472.212524 215.528259,472.537811 231.347229,469.403564 
	C245.131439,466.672577 258.890259,464.278168 271.840393,458.867004 
	C281.114227,454.991943 289.934021,450.030365 299.471069,445.016388 
z"/>
<path fill="#FFFFFF" opacity="1.000000" stroke="none" 
	d="
M139.200623,334.444946 
	C136.160202,340.206329 133.604797,345.820435 130.285400,350.939117 
	C128.847580,353.156311 126.395653,352.663483 124.943031,349.791199 
	C119.023216,338.085968 113.101791,326.378021 106.929810,314.805023 
	C102.551971,306.596222 97.599541,298.694061 93.213036,290.489594 
	C87.325401,279.477478 81.867760,268.235596 75.986603,257.219910 
	C68.214790,242.662918 60.155235,228.259750 52.338432,213.726440 
	C49.611820,208.656998 46.572422,203.594589 44.960587,198.148743 
	C44.031799,195.010712 45.092030,190.906464 46.266705,187.595337 
	C49.572392,178.277420 53.138107,169.030136 57.096149,159.971237 
	C61.183468,150.616425 65.790489,141.485428 70.279755,132.310150 
	C80.752510,110.905708 92.893608,90.449333 107.313698,71.508926 
	C117.724564,57.834534 129.347321,45.074944 143.526093,35.051292 
	C153.062668,28.309429 163.024979,22.287970 174.654144,19.736776 
	C185.361526,17.387791 196.068924,17.890732 206.947845,18.746563 
	C215.602432,19.427406 223.495483,22.381926 230.894653,25.823294 
	C240.517990,30.299118 249.484680,36.471115 258.065674,42.816814 
	C265.369812,48.218277 271.902618,54.719597 278.438507,61.081722 
	C282.349640,64.888840 285.829132,69.199379 289.121002,73.570999 
	C297.706451,84.972443 306.537903,96.230568 314.399017,108.122444 
	C320.909790,117.971634 326.473358,128.489182 331.918518,138.989624 
	C338.391174,151.471466 344.166290,164.313278 350.500427,176.869583 
	C352.769531,181.367691 353.277374,185.170334 350.709290,189.940079 
	C341.219116,207.566193 332.178558,225.434586 322.982452,243.218826 
	C315.705261,257.292023 308.412262,271.357269 301.191620,285.459473 
	C294.338593,298.843689 287.545807,312.258942 280.774384,325.684692 
	C276.802185,333.560364 272.976227,341.510315 268.941956,349.353546 
	C268.381042,350.444092 267.093475,351.604523 265.969543,351.816528 
	C265.124207,351.975952 263.588379,350.902069 263.065369,349.977966 
	C255.243362,336.157562 247.597672,322.237488 239.785309,308.411591 
	C234.740417,299.483398 229.348572,290.749725 224.379166,281.780945 
	C220.290192,274.401215 216.746094,266.720367 212.685410,259.324005 
	C207.619263,250.096161 202.270950,241.023239 196.782837,231.425919 
	C191.338867,241.204590 186.382401,250.327927 181.205505,259.324432 
	C178.071442,264.770874 174.326111,269.874878 171.339767,275.394775 
	C167.311768,282.839996 164.006149,290.678223 159.929703,298.094513 
	C153.274170,310.202850 146.246460,322.106659 139.200623,334.444946 
z"/>
<path fill="#FFFFFF" opacity="1.000000" stroke="none" 
	d="
M299.213745,445.284973 
	C289.934021,450.030365 281.114227,454.991943 271.840393,458.867004 
	C258.890259,464.278168 245.131439,466.672577 231.347229,469.403564 
	C215.528259,472.537811 199.818085,472.212524 184.113358,471.715637 
	C171.750809,471.324493 159.273453,469.220673 147.205780,466.362915 
	C135.298492,463.543152 123.926086,458.776093 112.891869,453.123688 
	C96.904991,444.934235 82.601326,434.613922 70.327942,421.657837 
	C60.793842,411.593384 52.798973,400.303131 45.580078,388.363373 
	C37.048130,374.251862 30.930702,359.186096 26.430271,343.523010 
	C23.899710,334.715759 23.250816,325.342712 22.062855,316.184540 
	C21.387453,310.977753 20.710501,305.639374 21.133961,300.449982 
	C21.952915,290.413940 23.426517,280.423492 24.874029,270.449707 
	C25.657934,265.048401 26.907804,259.712036 28.048498,254.367935 
	C28.234528,253.496399 28.945801,252.736969 30.284428,250.419022 
	C64.069527,312.644501 96.873032,374.120850 129.983337,436.323975 
	C133.376785,429.786835 136.674194,423.425903 139.979691,417.069183 
	C144.152313,409.044922 148.357422,401.037445 152.498978,392.997192 
	C155.361725,387.439606 158.073303,381.803619 160.971130,376.264740 
	C166.855667,365.017029 172.934830,353.869751 178.716263,342.569824 
	C183.314682,333.582062 187.537292,324.402496 192.066132,315.378082 
	C192.728790,314.057587 194.007370,312.744995 195.321228,312.197693 
	C195.862518,311.972290 197.556000,313.597321 198.205688,314.689758 
	C204.522232,325.310883 210.694824,336.017426 216.977112,346.659088 
	C221.818695,354.860321 226.857895,362.946075 231.623962,371.190277 
	C235.551010,377.983215 239.136658,384.972565 242.996597,391.805420 
	C250.750427,405.531067 258.574707,419.217072 266.425354,432.887604 
	C266.890076,433.696808 267.845245,434.224335 268.374573,434.703888 
	C271.061859,428.801971 273.559082,422.926270 276.376648,417.208435 
	C282.827209,404.117889 289.433685,391.104156 295.977966,378.059814 
	C300.202759,369.638733 304.528717,361.266663 308.634399,352.787933 
	C316.827911,335.867432 324.808197,318.843231 333.062164,301.952576 
	C337.335571,293.207611 342.081390,284.694763 346.469971,276.004425 
	C349.342346,270.316589 351.905548,264.473480 354.701141,258.745789 
	C357.671600,252.659973 360.704956,246.603165 363.846436,240.604660 
	C364.241486,239.850311 365.500214,239.077591 366.286163,239.146118 
	C366.925323,239.201859 367.800476,240.431641 367.979736,241.267578 
	C369.399139,247.885330 371.439880,254.487854 371.840271,261.181732 
	C372.690857,275.401794 373.432434,289.709869 372.772461,303.914673 
	C372.171295,316.854340 370.022644,329.767792 367.819305,342.565918 
	C366.876373,348.042908 363.206024,353.054047 362.286957,358.530640 
	C360.510315,369.117218 356.252228,378.709320 351.340698,387.919861 
	C346.884552,396.276367 341.560150,404.335876 335.561035,411.660126 
	C328.623138,420.130493 320.763611,427.899048 312.836731,435.483765 
	C308.923645,439.227905 303.959564,441.873627 299.213745,445.284973 
z"/>
</svg>