<?xml version="1.0" encoding="UTF-8"?>
<svg version="1.1" xmlns="http://www.w3.org/2000/svg" width="1070" height="556">
<path d="M0 0 C6.39772305 4.52081699 12.22043526 9.62955789 17.89453125 15.01953125 C18.38679199 15.47924316 18.87905273 15.93895508 19.38623047 16.41259766 C45.63063751 41.03768634 63.5503456 73.86253065 78.89453125 106.01953125 C79.21631348 106.68968262 79.5380957 107.35983398 79.86962891 108.05029297 C84.42242324 117.66174768 84.42242324 117.66174768 82.89453125 124.01953125 C81.52493263 127.24236444 79.91484435 130.32764003 78.29296875 133.4296875 C77.82479736 134.34090866 77.35662598 135.25212982 76.87426758 136.19096375 C75.34709942 139.15871924 73.80842327 142.12034062 72.26953125 145.08203125 C71.20581321 147.1438294 70.14282942 149.20600651 69.08056641 151.26855469 C66.48317158 156.30734868 63.87687818 161.34146534 61.26660156 166.37359619 C59.43073822 169.91392145 57.599784 173.456772 55.76953125 177 C54.03267351 180.36095713 52.2945954 183.72124109 50.55175781 187.07910156 C46.88307795 194.15079127 43.2471274 201.23832401 39.62890625 208.3359375 C38.69223758 210.17155842 37.75555129 212.00717036 36.81884766 213.84277344 C35.43993203 216.54524523 34.06209377 219.24823305 32.68817139 221.95324707 C27.01180409 233.12901993 21.13805623 244.14959773 14.89453125 255.01953125 C12.09376591 251.66833087 9.8125866 248.33161856 7.71484375 244.50390625 C7.12300293 243.43043945 6.53116211 242.35697266 5.92138672 241.25097656 C5.29377441 240.10209961 4.66616211 238.95322266 4.01953125 237.76953125 C3.35359081 236.5592601 2.68707753 235.34930399 2.02001953 234.13964844 C0.99197995 232.27520168 -0.03570859 230.41057087 -1.06167603 228.54498291 C-4.42117026 222.4362868 -7.82072832 216.35031516 -11.23046875 210.26953125 C-11.80297363 209.24827148 -12.37547852 208.22701172 -12.96533203 207.17480469 C-14.6775351 204.12238497 -16.39121713 201.0708009 -18.10546875 198.01953125 C-18.67040039 197.01341797 -19.23533203 196.00730469 -19.81738281 194.97070312 C-26.78269075 182.57461292 -33.83808294 170.24120716 -41.10546875 158.01953125 C-45.38309865 164.19614832 -49.13488101 170.51803158 -52.66796875 177.14453125 C-57.38083508 185.88294008 -62.19937371 194.55279606 -67.10107422 203.18652344 C-70.5906093 209.33499911 -74.05282721 215.49782702 -77.49560547 221.67260742 C-82.22666421 230.15342544 -86.97288841 238.62479223 -91.85546875 247.01953125 C-92.26176514 247.72577637 -92.66806152 248.43202148 -93.08666992 249.15966797 C-95.86953925 253.9015665 -95.86953925 253.9015665 -98.10546875 255.01953125 C-98.54189697 254.19678711 -98.9783252 253.37404297 -99.42797852 252.52636719 C-107.12936076 238.01094681 -114.83660024 223.49897691 -122.60546875 209.01953125 C-128.32283771 198.3633611 -134.0056838 187.68936282 -139.67337036 177.00671387 C-145.57281914 165.88820281 -151.50406747 154.78707098 -157.4609375 143.69921875 C-158.33492187 142.07113281 -158.33492187 142.07113281 -159.2265625 140.41015625 C-159.99117798 138.98751465 -159.99117798 138.98751465 -160.77124023 137.53613281 C-161.43168335 136.29041504 -161.43168335 136.29041504 -162.10546875 135.01953125 C-162.49653809 134.31006348 -162.88760742 133.6005957 -163.29052734 132.86962891 C-165.35665445 128.17906233 -162.78909472 122.92314813 -161.09375 118.44921875 C-160.21334097 116.25965631 -159.32062856 114.07501491 -158.41796875 111.89453125 C-157.6919043 110.13109375 -157.6919043 110.13109375 -156.95117188 108.33203125 C-142.50831457 73.61439107 -124.87467634 40.69921457 -99.10546875 13.01953125 C-98.4196875 12.26800781 -97.73390625 11.51648438 -97.02734375 10.7421875 C-69.73130425 -18.01975042 -33.02563759 -21.06163303 0 0 Z " fill="#0064D4" transform="translate(785.10546875,55.98046875)"/>
<path d="M0 0 C0.90814453 -0.02900391 1.81628906 -0.05800781 2.75195312 -0.08789062 C12.06630076 -0.17456673 19.15970474 2.82196804 25.8125 9.3125 C28.4251649 13.07077122 28.11915775 17.16537144 28.13134766 21.56933594 C28.14139328 22.39897354 28.1514389 23.22861115 28.16178894 24.08338928 C28.19263982 26.82121091 28.20966136 29.55893467 28.2265625 32.296875 C28.24527262 34.19688765 28.26484591 36.09689197 28.2852478 37.99688721 C28.33659151 42.99451798 28.3762053 47.9921757 28.41339111 52.9899292 C28.45341668 58.09101032 28.50451564 63.19197912 28.5546875 68.29296875 C28.65147332 78.2994003 28.73586967 88.30589523 28.8125 98.3125 C29.42724686 97.62234802 30.04199371 96.93219604 30.67536926 96.22113037 C31.48350571 95.31767883 32.29164215 94.41422729 33.12426758 93.48339844 C33.92463943 92.58699646 34.72501129 91.69059448 35.54963684 90.76702881 C48.34530659 76.88755938 65.47523382 71.4022733 83.80883789 70.43774414 C106.17210621 69.62616465 127.1310364 77.47174963 143.8125 92.3125 C144.49828125 92.91578125 145.1840625 93.5190625 145.890625 94.140625 C162.95924317 110.13405463 172.78898673 134.56645856 173.98950195 157.72729492 C174.57023721 191.51868312 170.37163007 221.2057915 146.26123047 246.85498047 C134.25945622 258.92956629 118.25034704 265.89453421 101.8125 269.3125 C101.090625 269.46332031 100.36875 269.61414063 99.625 269.76953125 C97.67251213 270.08512735 95.78947767 270.22777239 93.8125 270.3125 C92.20375 270.38984375 92.20375 270.38984375 90.5625 270.46875 C67.67036847 271.04105329 48.66996076 263.77178186 31.7109375 248.23046875 C29.8125 246.3125 29.8125 246.3125 28.8125 244.3125 C28.77382812 245.72402344 28.77382812 245.72402344 28.734375 247.1640625 C28.14559261 260.09051233 28.14559261 260.09051233 23.8125 264.3125 C13.47685555 271.28087567 -0.11675803 271.79507423 -12.0625 269.625 C-18.78542428 267.84724349 -24.44652714 264.20739423 -28.1875 258.3125 C-28.779275 255.02665153 -28.72723927 251.7818296 -28.69543457 248.45045471 C-28.70167453 247.44994565 -28.7079145 246.4494366 -28.71434355 245.41860908 C-28.73031324 242.06211834 -28.71765326 238.7063498 -28.70507812 235.34985352 C-28.71049749 232.94508439 -28.71761909 230.54031858 -28.72631836 228.13555908 C-28.74268056 222.27939119 -28.7402631 216.42341122 -28.7286678 210.56724853 C-28.71963319 205.80719965 -28.71840958 201.04720824 -28.72276306 196.28715324 C-28.72337599 195.60959953 -28.72398893 194.93204581 -28.72462043 194.23396016 C-28.72589934 192.8574972 -28.72719619 191.48103426 -28.7285108 190.10457134 C-28.73991707 177.1972142 -28.72680264 164.28997069 -28.70530933 151.38263219 C-28.68744231 140.31028835 -28.69053903 129.23811228 -28.70898438 118.16577148 C-28.73039726 105.30607066 -28.73881418 92.44646947 -28.72653532 79.58675331 C-28.72526114 78.2150564 -28.72400365 76.84335947 -28.72276306 75.47166252 C-28.72214596 74.79677472 -28.72152886 74.12188691 -28.72089306 73.42654796 C-28.7174411 68.67335934 -28.72326524 63.92023396 -28.73268127 59.16705513 C-28.74508053 52.7672909 -28.7362345 46.36776891 -28.71310425 39.96803284 C-28.70781085 37.61783309 -28.70934165 35.26760671 -28.71815491 32.91741753 C-28.72906864 29.71175995 -28.71539605 26.5071214 -28.69543457 23.30152893 C-28.70435746 22.36913425 -28.71328034 21.43673956 -28.72247362 20.47609049 C-28.65535309 14.92746228 -27.91962085 11.6985134 -24.1875 7.3125 C-21.75 5.44921875 -21.75 5.44921875 -19.1875 4 C-18.341875 3.50886719 -17.49625 3.01773438 -16.625 2.51171875 C-11.23889717 -0.13817479 -5.89436278 0.06144228 0 0 Z M40.171875 131.75 C29.75024701 143.06885424 26.16181904 157.96518691 26.33740234 173.00854492 C27.00838562 189.10658297 33.23085813 202.18504017 44.8125 213.3125 C50.31331632 217.82696305 55.95750102 220.50429161 62.8125 222.3125 C63.6375 222.539375 64.4625 222.76625 65.3125 223 C77.81796392 224.56318299 89.39893903 221.38858688 99.8125 214.3125 C110.4830499 205.71318335 117.06206512 192.83708645 118.8125 179.3125 C119.94486737 163.82171433 118.26106709 149.18446096 108.8125 136.3125 C108.29945313 135.60609375 107.78640625 134.8996875 107.2578125 134.171875 C99.5636829 124.52660249 88.68315185 119.12740157 76.625 117.4375 C62.20611229 116.46680349 50.41702669 122.07755865 40.171875 131.75 Z " fill="#0064D4" transform="translate(206.1875,109.6875)"/>
<path d="M0 0 C0.9796875 0.40863281 1.959375 0.81726563 2.96875 1.23828125 C20.23727326 9.13818557 30.786831 22.42091717 37.7109375 39.7109375 C38.16402599 41.13338206 38.59068161 42.56434818 39 44 C39.25266632 44.88336533 39.50533264 45.76673065 39.76565552 46.67686462 C42.87628328 59.63273862 42.47644398 72.78381053 42.46883965 86.03417754 C42.46871873 88.82808383 42.47732915 91.62193946 42.48561716 94.41583139 C42.50472096 101.0012962 42.50777839 107.58663425 42.50097656 114.17211914 C42.49430026 120.95550118 42.51737252 127.7383444 42.55429029 134.52161711 C42.58495871 140.36994838 42.59635183 146.21810565 42.59245348 152.06651574 C42.59038808 155.5497358 42.59583672 159.03253315 42.62034607 162.5156765 C42.64669482 166.38591319 42.63290756 170.25543392 42.61523438 174.12573242 C42.62849762 175.27532944 42.64176086 176.42492645 42.65542603 177.60935974 C42.57288513 185.35930468 42.57288513 185.35930468 39.60585022 188.67753601 C32.12456715 192.47427282 24.88566837 193.50772266 16.5625 193.375 C15.1866272 193.3608606 15.1866272 193.3608606 13.78295898 193.34643555 C5.08028424 193.15263097 -2.93236596 192.50893997 -9.7668457 186.5715332 C-12.09002725 183.61086806 -11.88798314 180.31953451 -11.875 176.6875 C-11.895625 175.94693359 -11.91625 175.20636719 -11.9375 174.44335938 C-11.9843121 172.62939058 -11.99573545 170.81456771 -12 169 C-12.37769531 169.42410156 -12.75539063 169.84820312 -13.14453125 170.28515625 C-25.94647253 183.92656909 -43.91906338 190.50679538 -62.35546875 191.28515625 C-83.46612278 191.79454811 -103.49730079 187.47937576 -119.6875 172.9375 C-130.46250546 161.38357849 -134.58786971 147.16483982 -134.4375 131.6875 C-134.42992676 130.59171631 -134.42235352 129.49593262 -134.41455078 128.36694336 C-134.15875093 115.7608653 -131.43135612 105.38149246 -124 95 C-123.54882812 94.36578125 -123.09765625 93.7315625 -122.6328125 93.078125 C-111.48090528 78.83896663 -92.5110756 73.2055918 -75.38671875 70.41015625 C-53.59754308 67.92924974 -31.68362771 69.80092816 -11 77 C-11.19771018 67.86938427 -12.87537775 59.09619994 -18.7578125 51.828125 C-30.12189473 41.06215236 -44.53600767 41.56777408 -59.18359375 41.71875 C-69.65334576 42.00453551 -78.27781513 44.87829388 -87.9375 48.8125 C-93.38250442 50.9359186 -96.43451687 52.0752649 -102 50 C-109.96801123 43.60211253 -113.33831102 34.84472339 -115 25 C-115.41637924 19.34498892 -115.58633995 14.06684011 -111.74633789 9.51342773 C-108.01390248 6.27878953 -102.97838952 4.86664356 -98.4375 3.0625 C-97.31593506 2.61592041 -96.19437012 2.16934082 -95.03881836 1.70922852 C-66.12068132 -9.50106321 -29.07719656 -12.24083131 0 0 Z M-74.7578125 112.48046875 C-79.77533399 118.08386849 -81.54106465 124.23466652 -81.28515625 131.578125 C-80.54039389 137.90350398 -77.42203745 142.57796255 -73 147 C-63.0615742 153.76611578 -51.50373163 153.63997007 -40 152 C-28.51227771 149.41291668 -19.77555224 143.67936035 -13 134 C-8.89578411 126.60658981 -9.7088768 118.18379667 -10 110 C-30.01141573 102.29466983 -56.73436045 97.30071691 -74.7578125 112.48046875 Z " fill="#0064D4" transform="translate(532,187)"/>
<path d="M0 0 C0.66 0 1.32 0 2 0 C7.25097634 25.50474222 7.90352962 55.5439338 2 81 C1.83371094 81.77424316 1.66742187 82.54848633 1.49609375 83.34619141 C-5.50361571 115.51244887 -24.21919089 146.65274027 -52 165 C-64.98179702 173.25687864 -78.48796546 179.09509609 -93.4375 182.75 C-94.24662842 182.94883789 -95.05575684 183.14767578 -95.8894043 183.35253906 C-109.25677248 186.41920926 -122.64067182 187.38722582 -136.3125 187.3125 C-137.02989349 187.31034485 -137.74728699 187.3081897 -138.48641968 187.30596924 C-149.86920061 187.25133315 -160.90903684 186.73284082 -172 184 C-173.20970459 183.70198486 -173.20970459 183.70198486 -174.44384766 183.39794922 C-210.1841908 174.24167248 -239.15176049 152.18196875 -258.05859375 120.44140625 C-264.30517895 109.3684856 -269.63854402 98.32335368 -273 86 C-273.29414795 84.96673584 -273.29414795 84.96673584 -273.59423828 83.91259766 C-279.8182123 61.25081817 -279.76503299 33.21474655 -272 11 C-268.82063193 13.90584639 -266.90370199 16.68603765 -264.96875 20.5234375 C-264.41171387 21.6155957 -263.85467773 22.70775391 -263.28076172 23.83300781 C-262.69311035 25.00186523 -262.10545898 26.17072266 -261.5 27.375 C-260.24635711 29.83807547 -258.98666351 32.29803595 -257.7265625 34.7578125 C-257.41123566 35.37483032 -257.09590881 35.99184814 -256.77102661 36.62756348 C-253.90394989 42.2235111 -250.91124684 47.74452844 -247.875 53.25 C-243.81953575 60.61832196 -239.86948019 68.03231769 -236 75.5 C-232.08751368 83.04996547 -228.09431488 90.54706745 -224 98 C-219.38896208 106.39352996 -214.92500224 114.85406545 -210.51977539 123.35717773 C-206.4259687 131.2371329 -202.20093768 139.04065443 -197.91992188 146.8203125 C-195.52570295 151.17522923 -193.17852078 155.53293214 -191 160 C-183.9239725 147.299042 -177.16626401 134.47859249 -170.70922852 121.4519043 C-167.2669152 114.51343544 -163.75301567 107.62498512 -160.10473633 100.79272461 C-157.23729601 95.40441973 -154.4601327 89.97461815 -151.70703125 84.52734375 C-150.54654404 82.2407506 -149.3852617 79.95456292 -148.22375488 77.66848755 C-147.45209083 76.14444497 -146.68391603 74.61863046 -145.91931152 73.09103394 C-144.84171525 70.93892578 -143.75218562 68.79324938 -142.66015625 66.6484375 C-142.33553909 65.99209824 -142.01092194 65.33575897 -141.6764679 64.65953064 C-139.34126376 60.11375459 -139.34126376 60.11375459 -136 59 C-135.16082031 60.53140625 -135.16082031 60.53140625 -134.3046875 62.09375 C-128.85246465 71.99802203 -123.23743204 81.79711866 -117.5246582 91.55322266 C-113.17689747 98.97838915 -108.85901919 106.4200678 -104.5625 113.875 C-103.94826172 114.94008789 -103.33402344 116.00517578 -102.70117188 117.10253906 C-99.76358206 122.19813932 -96.82933102 127.29563205 -93.90113831 132.39663696 C-92.53493486 134.77597172 -91.16719744 137.15442282 -89.79928589 139.53277588 C-88.83870135 141.2044039 -87.88037822 142.87733079 -86.92211914 144.55029297 C-86.04221313 146.08000732 -86.04221313 146.08000732 -85.14453125 147.640625 C-84.63253174 148.53297852 -84.12053223 149.42533203 -83.59301758 150.34472656 C-81.82199032 153.29671007 -79.92909065 156.14932266 -78 159 C-77.54262451 158.05495605 -77.08524902 157.10991211 -76.61401367 156.13623047 C-61.3461687 124.59918871 -61.3461687 124.59918871 -55.125 112.25 C-51.05931977 104.17942341 -47.13996726 96.04704262 -43.26416016 87.88378906 C-39.76670852 80.54272585 -36.1537005 73.26440364 -32.5 66 C-28.41253511 57.87305924 -24.39870842 49.71918816 -20.5 41.5 C-14.92074971 29.73814143 -9.09955653 18.10297264 -3.24584961 6.47583008 C-2.16047763 4.31891116 -1.07870813 2.16025745 0 0 Z " fill="#0064D4" transform="translate(880,221)"/>
<path d="M0 0 C1.29744141 -0.04350586 1.29744141 -0.04350586 2.62109375 -0.08789062 C10.50912202 -0.16476047 17.39854504 1.95266966 23.3125 7.375 C23.85777344 7.86097656 24.40304688 8.34695312 24.96484375 8.84765625 C27.68859625 11.67703904 28.62489103 13.61750855 28.63226891 17.4442873 C28.6387178 18.28954198 28.64516669 19.13479666 28.651811 20.00566512 C28.6487138 20.93444337 28.6456166 21.86322161 28.64242554 22.82014465 C28.64695665 23.8066942 28.65148776 24.79324376 28.65615618 25.80968875 C28.66886314 29.13074118 28.66717575 32.45163095 28.66552734 35.77270508 C28.67150869 38.14762077 28.67831332 40.52253452 28.68588257 42.89744568 C28.70174941 48.68832693 28.70799274 54.47915844 28.70910732 60.27006034 C28.71005726 64.97722821 28.71416484 69.68438263 28.72050858 74.39154625 C28.73812555 87.73511653 28.74734686 101.07865461 28.74584763 114.4222366 C28.74576772 115.14181698 28.7456878 115.86139736 28.74560547 116.6027832 C28.74552371 117.32324161 28.74544195 118.04370002 28.74535771 118.7859905 C28.74454492 130.46034862 28.76367943 142.13457769 28.7918822 153.80889849 C28.82060727 165.79394317 28.83442267 177.7789249 28.83269465 189.76400489 C28.83203056 196.49352604 28.83753083 203.22291195 28.85905075 209.95240211 C28.87838164 216.281555 28.87859268 222.6104219 28.86401749 228.93958473 C28.86192185 231.26399146 28.86667495 233.58841584 28.8787384 235.91279221 C28.89412968 239.08350148 28.8849225 242.25321719 28.86947632 245.42390442 C28.87976344 246.3459905 28.89005057 247.26807658 28.90064943 248.21810466 C28.84092268 253.75776898 28.06952582 256.92027138 24.375 261.3125 C16.45170806 268.88364563 8.10288136 270.63546808 -2.48828125 270.53125 C-11.34322432 269.91371972 -18.54854452 266.67986525 -24.74883556 260.29769802 C-28.47478154 255.854167 -28.47130837 251.92325707 -28.39363098 246.29933167 C-28.40369649 245.30669199 -28.413762 244.31405232 -28.42413253 243.29133266 C-28.45035662 239.97307229 -28.43380612 236.65643675 -28.41723633 233.33813477 C-28.427006 230.95601274 -28.43931231 228.57389997 -28.45396423 226.19180298 C-28.48230527 220.39797885 -28.4824631 214.60466565 -28.46851341 208.81079859 C-28.45768397 204.10037039 -28.45823001 199.39007161 -28.46683311 194.67963982 C-28.46804124 194.00848525 -28.46924936 193.33733068 -28.47049409 192.64583809 C-28.47298482 191.28226364 -28.4754958 189.91868923 -28.47802683 188.55511486 C-28.50029473 175.77640141 -28.48504613 162.99793998 -28.45744052 150.21925073 C-28.4347261 139.26342887 -28.44639845 128.30807421 -28.48266602 117.35229492 C-28.52481021 104.61996431 -28.5438972 91.88792327 -28.52764148 79.15552372 C-28.52598188 77.79674117 -28.52435853 76.43795858 -28.52277184 75.07917595 C-28.52198689 74.41068777 -28.52120195 73.74219958 -28.52039323 73.05345418 C-28.51650779 68.35121468 -28.52919998 63.64918886 -28.54850197 58.94699287 C-28.5726331 52.61260966 -28.56267217 46.27917564 -28.52651405 39.94485855 C-28.51886139 37.62130088 -28.52311287 35.29766868 -28.54018784 32.97416115 C-28.56159346 29.79923847 -28.53977375 26.627414 -28.50715637 23.45265198 C-28.52345354 22.53522911 -28.53975072 21.61780625 -28.55654174 20.67258269 C-28.43023287 14.52757971 -26.76643386 11.38636682 -22.54027575 6.94404739 C-15.76707122 1.17422329 -8.59230364 0.09353016 0 0 Z " fill="#0064D4" transform="translate(100.625,109.6875)"/>
<path d="M0 0 C3.26216515 2.73812255 4.81108138 4.49941076 5.32562923 8.84407711 C5.32805913 10.12440602 5.33048903 11.40473494 5.33299255 12.72386169 C5.33837809 13.43837323 5.34376363 14.15288476 5.34931237 14.88904816 C5.36362131 17.28354774 5.35648123 19.67749678 5.34936523 22.07202148 C5.35506729 23.78861944 5.36203091 25.5052136 5.37016296 27.22180176 C5.38812789 31.88502957 5.38691972 36.54806955 5.38122058 41.21132159 C5.37813349 45.10308888 5.38421583 48.99481984 5.39025933 52.88658196 C5.40431394 62.06707812 5.40273552 71.24748125 5.39135742 80.42797852 C5.37987531 89.90179423 5.3939513 99.37532689 5.4207539 108.8491053 C5.44289909 116.98085191 5.44955094 125.11250959 5.44367748 133.24428421 C5.44030387 138.10197066 5.4427498 142.95947565 5.45992851 147.81713676 C5.47537676 152.38496835 5.47146579 156.95238013 5.45262337 161.52019501 C5.44893157 163.19676952 5.45206314 164.873375 5.46250916 166.54992104 C5.47568114 168.83869322 5.46420701 171.12606782 5.44651794 173.41477966 C5.44630866 174.6954856 5.44609938 175.97619154 5.44588375 177.29570675 C4.85730784 181.2195039 3.70510708 182.83819977 0.9453125 185.6328125 C-1.45703125 187.1796875 -1.45703125 187.1796875 -3.9921875 188.3828125 C-5.24322266 188.99382812 -5.24322266 188.99382812 -6.51953125 189.6171875 C-15.98547981 193.4094011 -29.49157286 193.02164164 -39.0390625 189.546875 C-44.2808933 187.16976569 -47.53336528 184.83179342 -50.0546875 179.6328125 C-50.43500423 176.33252811 -50.43500423 176.33252811 -50.44236755 172.50416565 C-50.44775309 171.79767236 -50.45313863 171.09117907 -50.45868737 170.3632769 C-50.47296633 168.00185313 -50.46586364 165.64098997 -50.45874023 163.27954102 C-50.46444385 161.58412221 -50.47140808 159.88870725 -50.47953796 158.19329834 C-50.4974855 153.59204329 -50.49629799 148.99097877 -50.49059558 144.38969922 C-50.48750602 140.54768243 -50.49359359 136.70570236 -50.49963433 132.86369079 C-50.51368319 123.79963977 -50.51211526 114.73568299 -50.50073242 105.67163086 C-50.48925063 96.32221291 -50.50332706 86.97308179 -50.5301289 77.62370163 C-50.55228349 69.59467821 -50.55892382 61.56574485 -50.55305248 53.53669304 C-50.54968115 48.74214589 -50.5521097 43.94778262 -50.56930351 39.15326118 C-50.58476674 34.64450731 -50.58082411 30.13617845 -50.56199837 25.62744141 C-50.55831075 23.97386189 -50.56142602 22.32025092 -50.57188416 20.66670036 C-50.58508474 18.40679148 -50.57355673 16.14829157 -50.55589294 13.88844299 C-50.55568366 12.62470635 -50.55547438 11.36096972 -50.55525875 10.05893803 C-49.79779072 4.87450016 -47.41845767 1.79700655 -43.4921875 -1.5546875 C-29.7007957 -8.82651227 -12.90578172 -8.83514089 0 0 Z " fill="#0064D4" transform="translate(971.0546875,187.3671875)"/>
<path d="M0 0 C6.43437267 4.65024429 11.48524297 9.94934689 13 18 C13.77054674 28.85081387 13.06027276 36.95346058 6.3125 45.75 C1.25375408 51.28501461 -5.44662906 54.62363736 -12.8828125 55.23828125 C-22.74836168 55.46411912 -30.02491578 54.12632188 -37.375 47.25 C-44.01091378 40.06444488 -46.38452266 32.67161878 -46.28125 23.015625 C-45.56688175 15.35600991 -42.64795875 8.27961361 -37 3 C-25.88431251 -4.66349837 -12.11028793 -7.93352196 0 0 Z " fill="#0064D4" transform="translate(965,112)"/>
<path d="M0 0 C3.375 2 3.375 2 6 4 C9.14760893 4.30763543 9.14760893 4.30763543 11.5625 2 C16.14999856 -0.66909007 19.80518058 -0.83623922 25 0 C29.53739647 2.22744918 31.80169469 4.49629954 34 9 C34.34057617 12.22973633 34.34057617 12.22973633 34.29296875 15.83203125 C34.2784668 17.77045898 34.2784668 17.77045898 34.26367188 19.74804688 C34.23860985 21.1028707 34.21321506 22.45768841 34.1875 23.8125 C34.17244013 25.18683445 34.15875401 26.56118468 34.14648438 27.93554688 C34.11116628 31.29076632 34.06183851 34.64518166 34 38 C32.02 38 30.04 38 28 38 C27.98541748 37.30438965 27.97083496 36.6087793 27.95581055 35.89208984 C27.88102031 32.71918662 27.78446188 29.54729992 27.6875 26.375 C27.65366211 24.73337891 27.65366211 24.73337891 27.61914062 23.05859375 C27.37957071 15.1076742 27.37957071 15.1076742 24 8 C20.71100723 6.35550361 17.34738444 6.92514531 13.75 7.125 C11.76287078 7.89260346 11.76287078 7.89260346 10.9296875 10.28125 C9.59412522 15.62349913 9.53013578 20.88707177 9.375 26.375 C9.33632813 27.49261719 9.29765625 28.61023438 9.2578125 29.76171875 C9.16393445 32.50765161 9.07825089 35.25358476 9 38 C7.02 38 5.04 38 3 38 C2.98541748 37.30438965 2.97083496 36.6087793 2.95581055 35.89208984 C2.88102031 32.71918662 2.78446188 29.54729992 2.6875 26.375 C2.66494141 25.28058594 2.64238281 24.18617188 2.61914062 23.05859375 C2.37957071 15.1076742 2.37957071 15.1076742 -1 8 C-3.85324437 6.57337781 -5.83454549 6.68966132 -9 7 C-12.33761045 9.15090451 -13.73470933 10.20412799 -15 14 C-15.14889747 15.84466442 -15.2479101 17.69357275 -15.31640625 19.54296875 C-15.35830078 20.61611328 -15.40019531 21.68925781 -15.44335938 22.79492188 C-15.50233398 24.47424805 -15.50233398 24.47424805 -15.5625 26.1875 C-15.60568359 27.31865234 -15.64886719 28.44980469 -15.69335938 29.61523438 C-15.79949099 32.41003354 -15.90154385 35.20492162 -16 38 C-17.98 38 -19.96 38 -22 38 C-22 25.79 -22 13.58 -22 1 C-20.02 1 -18.04 1 -16 1 C-15.67 1.99 -15.34 2.98 -15 4 C-14.195625 3.34 -13.39125 2.68 -12.5625 2 C-8.55317267 -0.65392826 -4.67027516 -0.87044555 0 0 Z " fill="#0064D4" transform="translate(272,439)"/>
<path d="M0 0 C5.42850067 3.16154252 8.70205834 7.06320628 10.7109375 13.08984375 C11.4142526 20.22676255 11.07294708 26.20713358 6.7109375 32.08984375 C3.44087732 35.51358822 0.28733382 37.85925406 -4.55859375 38.29296875 C-9.93218603 38.39202114 -13.64132437 38.11087354 -18.2890625 35.08984375 C-18.9490625 34.42984375 -19.6090625 33.76984375 -20.2890625 33.08984375 C-20.6190625 38.36984375 -20.9490625 43.64984375 -21.2890625 49.08984375 C-23.2690625 49.08984375 -25.2490625 49.08984375 -27.2890625 49.08984375 C-27.2890625 32.91984375 -27.2890625 16.74984375 -27.2890625 0.08984375 C-25.3090625 0.08984375 -23.3290625 0.08984375 -21.2890625 0.08984375 C-20.9590625 1.73984375 -20.6290625 3.38984375 -20.2890625 5.08984375 C-19.7115625 4.47109375 -19.1340625 3.85234375 -18.5390625 3.21484375 C-13.34445436 -1.69117505 -6.67799239 -2.65524271 0 0 Z M-18.5390625 10.27734375 C-20.78576947 13.88812281 -21.48938122 16.84976426 -21.2890625 21.08984375 C-19.57684957 26.22648253 -16.82778983 29.17820735 -12.2890625 32.08984375 C-8.39849373 32.89847177 -5.15681093 32.45622642 -1.4765625 30.90234375 C1.81424774 28.17567241 3.47416727 26.05860442 3.99609375 21.71875 C4.20383163 15.64015898 3.34586898 12.20385368 -0.62109375 7.515625 C-6.62268625 2.38545811 -13.6557397 5.52966881 -18.5390625 10.27734375 Z " fill="#0064D4" transform="translate(344.2890625,439.91015625)"/>
<path d="M0 0 C2.5625 1.625 2.5625 1.625 4.5625 3.625 C4.8925 2.305 5.2225 0.985 5.5625 -0.375 C7.5425 -0.375 9.5225 -0.375 11.5625 -0.375 C11.5625 15.795 11.5625 31.965 11.5625 48.625 C9.5825 48.625 7.6025 48.625 5.5625 48.625 C5.2325 43.345 4.9025 38.065 4.5625 32.625 C2.9125 33.945 1.2625 35.265 -0.4375 36.625 C-4.42716857 38.61983429 -9.10037279 38.13421736 -13.4375 37.625 C-18.27354649 35.84245724 -22.48266054 32.69215301 -24.8125 27.98046875 C-26.58850528 21.28714884 -27.01522972 13.44548497 -23.59765625 7.3359375 C-17.32751153 -0.53292405 -9.70464281 -3.88185712 0 0 Z M-16.4375 8.625 C-19.3599897 13.00873454 -19.997024 16.40277599 -19.4375 21.625 C-17.62459505 26.76156401 -15.30703166 29.19023417 -10.4375 31.625 C-6.13570137 32.23954266 -4.05353297 31.94486327 -0.1875 29.9375 C3.22666328 27.06649906 5.20211069 25.0275954 5.87890625 20.515625 C6.16203072 15.07232865 5.26810114 11.83135805 1.5625 7.625 C-1.36422672 5.25197833 -3.12059204 4.66533374 -6.875 4.1875 C-11.1801591 4.71620375 -13.16462679 5.79842768 -16.4375 8.625 Z " fill="#0064D4" transform="translate(595.4375,440.375)"/>
<path d="M0 0 C5.08396173 2.83567586 6.87910731 7.01232192 8.6875 12.4375 C8.6875 15.0775 8.6875 17.7175 8.6875 20.4375 C-0.8825 20.4375 -10.4525 20.4375 -20.3125 20.4375 C-16.30226807 28.0749117 -16.30226807 28.0749117 -12.3125 30.4375 C-7.33632431 31.16284086 -3.46930255 31.17785363 0.8125 28.4375 C1.43125 27.7775 2.05 27.1175 2.6875 26.4375 C4.0075 27.0975 5.3275 27.7575 6.6875 28.4375 C6.6875 32.4375 6.6875 32.4375 5.359375 33.921875 C-0.71430523 37.92161564 -6.16083917 38.44816539 -13.3125 37.4375 C-18.23243033 36.13254319 -21.32713948 33.91009409 -24.25 29.75 C-27.34652639 24.11139282 -27.93761296 18.51474369 -26.625 12.25 C-24.97843152 6.83677159 -22.61737127 2.90110474 -17.625 0.0625 C-11.6282686 -2.58540737 -6.02303049 -2.58129878 0 0 Z M-18.3125 9.4375 C-18.9725 11.4175 -19.6325 13.3975 -20.3125 15.4375 C-13.0525 15.4375 -5.7925 15.4375 1.6875 15.4375 C1.26439971 9.54614981 1.26439971 9.54614981 -1.9375 6.5625 C-8.64639789 2.33837911 -13.0621581 3.82085518 -18.3125 9.4375 Z " fill="#0064D4" transform="translate(232.3125,440.5625)"/>
<path d="M0 0 C4.58538404 2.46141827 8.03252146 5.42057199 9.61328125 10.4609375 C10.5020284 14.19980481 10.9296875 17.41181685 10.9296875 21.28125 C1.3596875 21.28125 -8.2103125 21.28125 -18.0703125 21.28125 C-15.04191792 28.99183562 -15.04191792 28.99183562 -11.0703125 31.28125 C-4.26115474 32.30500449 0.34123684 31.16886785 5.9296875 27.28125 C6.9196875 28.27125 7.9096875 29.26125 8.9296875 30.28125 C7.75563027 33.93387249 5.54151663 35.74739866 2.1875 37.515625 C-3.0480443 39.29099988 -9.01207591 39.30248258 -14.2578125 37.55078125 C-19.92273558 34.55960419 -23.03556914 30.20365195 -25.0703125 24.28125 C-25.9783192 17.21780252 -25.37720459 11.0896274 -21.0703125 5.28125 C-15.39271083 -0.66318412 -7.92098703 -2.74992757 0 0 Z M-16.0703125 9.28125 C-17.77836524 11.96533288 -18.0703125 13.04294533 -18.0703125 16.28125 C-10.8103125 16.28125 -3.5503125 16.28125 3.9296875 16.28125 C2.5789611 9.67762271 2.5789611 9.67762271 -0.1953125 6.84375 C-6.18592475 3.58798247 -11.32193574 4.25355696 -16.0703125 9.28125 Z " fill="#0064D4" transform="translate(414.0703125,439.71875)"/>
<path d="M0 0 C2.31 0 4.62 0 7 0 C7.33 5.94 7.66 11.88 8 18 C8.99 17.01 9.98 16.02 11 15 C16.62994973 13.12335009 22.09029508 13.06250849 27.4375 15.6875 C31.00275032 18.90492102 32.82914073 21.37971517 33.34057617 26.22973633 C33.3170105 28.01287231 33.3170105 28.01287231 33.29296875 29.83203125 C33.2784668 31.77045898 33.2784668 31.77045898 33.26367188 33.74804688 C33.23860985 35.1028707 33.21321506 36.45768841 33.1875 37.8125 C33.17244013 39.18683445 33.15875401 40.56118468 33.14648438 41.93554688 C33.11116628 45.29076632 33.06183851 48.64518166 33 52 C31.02 52 29.04 52 27 52 C26.98541748 51.26885986 26.97083496 50.53771973 26.95581055 49.78442383 C26.8811709 46.45992629 26.78456199 43.13641533 26.6875 39.8125 C26.66494141 38.66201172 26.64238281 37.51152344 26.61914062 36.32617188 C26.5659668 34.65844727 26.5659668 34.65844727 26.51171875 32.95703125 C26.48553467 31.93585205 26.45935059 30.91467285 26.43237305 29.86254883 C25.93837295 26.59199482 24.93588946 24.6615884 23 22 C19.21142881 20.10571441 15.12079724 20.70761811 11.125 21.75 C8.87730926 22.76681626 8.87730926 22.76681626 8.38696289 24.71191406 C7.92535625 27.44136356 7.78241723 30.09231757 7.68359375 32.859375 C7.64169922 33.97441406 7.59980469 35.08945312 7.55664062 36.23828125 C7.49766602 37.97658203 7.49766602 37.97658203 7.4375 39.75 C7.39431641 40.92433594 7.35113281 42.09867187 7.30664062 43.30859375 C7.20065206 46.20561451 7.09858362 49.10271935 7 52 C4.69 52 2.38 52 0 52 C0 34.84 0 17.68 0 0 Z " fill="#0064D4" transform="translate(806,425)"/>
<path d="M0 0 C4.68430426 4.80757543 5.12963958 8.55352594 5.09765625 15.078125 C5.09443359 16.23828125 5.09121094 17.3984375 5.08789062 18.59375 C5.07532227 20.40359375 5.07532227 20.40359375 5.0625 22.25 C5.05798828 23.47203125 5.05347656 24.6940625 5.04882812 25.953125 C5.03704815 28.96879946 5.02059853 31.98437498 5 35 C2.69 35 0.38 35 -2 35 C-2.33 34.34 -2.66 33.68 -3 33 C-3.763125 33.495 -4.52625 33.99 -5.3125 34.5 C-10.29711675 36.52764071 -14.68350294 36.72677226 -20 36 C-23.91075925 34.01031547 -25.57689098 32.63466354 -28 29 C-28.69502786 24.23178561 -28.69437161 20.23443842 -26.3125 16 C-21.62887676 11.94929882 -17.38476491 11.74707893 -11.3125 11.8125 C-10.29833008 11.8134668 -10.29833008 11.8134668 -9.26367188 11.81445312 C-4.2818674 11.8590663 -4.2818674 11.8590663 -2 13 C-2.8486428 9.52827945 -3.43639311 7.48309162 -6.1875 5.125 C-12.31862711 2.67254915 -17.90446011 4.28897126 -24 6 C-24.33 4.02 -24.66 2.04 -25 0 C-16.20246922 -3.49405478 -8.59566365 -4.88773031 0 0 Z M-21 20 C-22.41774107 22.83975058 -22.41774107 22.83975058 -22 26 C-19.41153077 29.20152773 -17.88239963 30.77912299 -13.76953125 31.26171875 C-9.66777794 31.02124745 -7.39012803 30.27634069 -4 27.875 C-1.65714713 24.507149 -1.23869167 22.05775837 -1 18 C-7.19338934 16.19298758 -16.12188501 15.12188501 -21 20 Z " fill="#0064D4" transform="translate(791,442)"/>
<path d="M0 0 C4.36888063 4.59882171 5.12683181 7.98482459 5.09765625 14.19921875 C5.09443359 15.40771484 5.09121094 16.61621094 5.08789062 17.86132812 C5.07532227 19.7552832 5.07532227 19.7552832 5.0625 21.6875 C5.05798828 22.96173828 5.05347656 24.23597656 5.04882812 25.54882812 C5.03702873 28.69926564 5.02056597 31.84960949 5 35 C3.02 35 1.04 35 -1 35 C-1.33 34.01 -1.66 33.02 -2 32 C-2.598125 32.474375 -3.19625 32.94875 -3.8125 33.4375 C-8.65414174 36.89581553 -14.2795071 36.60473782 -20 36 C-23.91075925 34.01031547 -25.57689098 32.63466354 -28 29 C-28.69502786 24.23178561 -28.69437161 20.23443842 -26.3125 16 C-21.30150969 11.66617055 -16.50012247 11.73742399 -10.1875 11.875 C-9.00510742 11.88853516 -9.00510742 11.88853516 -7.79882812 11.90234375 C-5.86575334 11.92577496 -3.9328362 11.96164162 -2 12 C-3.07295193 7.59343838 -3.07295193 7.59343838 -6.1875 4.625 C-12.55989861 3.20891142 -17.85281162 4.27447344 -24 6 C-24.33 4.02 -24.66 2.04 -25 0 C-16.20246922 -3.49405478 -8.59566365 -4.88773031 0 0 Z M-21 20 C-22.41774107 22.83975058 -22.41774107 22.83975058 -22 26 C-19.41153077 29.20152773 -17.88239963 30.77912299 -13.76953125 31.26171875 C-9.66777794 31.02124745 -7.39012803 30.27634069 -4 27.875 C-1.65714713 24.507149 -1.23869167 22.05775837 -1 18 C-7.19338934 16.19298758 -16.12188501 15.12188501 -21 20 Z " fill="#0064D4" transform="translate(494,442)"/>
<path d="M0 0 C2.79656139 2.35499907 3.83771178 3.51313533 5 7 C5.0833804 9.13794525 5.10733747 11.27842009 5.09765625 13.41796875 C5.09443359 14.67158203 5.09121094 15.92519531 5.08789062 17.21679688 C5.07532227 19.18229492 5.07532227 19.18229492 5.0625 21.1875 C5.05748317 22.52278481 5.05292059 23.85807141 5.04882812 25.19335938 C5.03702695 28.46228473 5.02056297 31.73111991 5 35 C3.02 35 1.04 35 -1 35 C-1.33 34.01 -1.66 33.02 -2 32 C-2.763125 32.66 -3.52625 33.32 -4.3125 34 C-8.83788077 37.02050355 -13.7699458 36.64597396 -19 36 C-22.29676875 34.82258259 -24.26258029 33.63909708 -26.875 31.375 C-28.64883231 27.6302429 -28.52354936 24.06477906 -28 20 C-26.63334873 16.50744677 -25.5548602 15.34031426 -22.36328125 13.3828125 C-18.43557046 11.76793489 -15.54417707 11.66578752 -11.3125 11.75 C-10.00925781 11.76546875 -8.70601562 11.7809375 -7.36328125 11.796875 C-4 12 -4 12 -1 13 C-2.6044256 8.2815365 -2.6044256 8.2815365 -5.6875 4.5625 C-11.86429448 3.06003648 -17.11548868 4.03849623 -23 6 C-23.66 4.02 -24.32 2.04 -25 0 C-16.10985465 -3.53083787 -8.61476703 -4.72967601 0 0 Z M-20 19 C-21.39935013 21.79870027 -21.25265405 23.90498792 -21 27 C-20.10938785 28.97578739 -20.10938785 28.97578739 -18 30 C-13.46282273 31.04131937 -11.0978514 31.37285519 -6.6875 29.875 C-3.70455671 27.79387678 -2.42799089 26.33197873 -1 23 C-0.74803871 20.29046449 -0.74803871 20.29046449 -1 18 C-4.2134038 17.05265218 -7.15472447 16.83547579 -10.5 16.8125 C-11.4384375 16.79832031 -12.376875 16.78414063 -13.34375 16.76953125 C-16.09403256 17.00815871 -17.69569211 17.50743693 -20 19 Z " fill="#0064D4" transform="translate(948,442)"/>
<path d="M0 0 C2.79656139 2.35499907 3.83771178 3.51313533 5 7 C5.0833804 9.13794525 5.10733747 11.27842009 5.09765625 13.41796875 C5.09443359 14.67158203 5.09121094 15.92519531 5.08789062 17.21679688 C5.07532227 19.18229492 5.07532227 19.18229492 5.0625 21.1875 C5.05748317 22.52278481 5.05292059 23.85807141 5.04882812 25.19335938 C5.03702695 28.46228473 5.02056297 31.73111991 5 35 C3.02 35 1.04 35 -1 35 C-1.33 34.01 -1.66 33.02 -2 32 C-2.763125 32.66 -3.52625 33.32 -4.3125 34 C-8.83788077 37.02050355 -13.7699458 36.64597396 -19 36 C-22.29676875 34.82258259 -24.26258029 33.63909708 -26.875 31.375 C-28.64883231 27.6302429 -28.52354936 24.06477906 -28 20 C-26.63334873 16.50744677 -25.5548602 15.34031426 -22.36328125 13.3828125 C-18.43557046 11.76793489 -15.54417707 11.66578752 -11.3125 11.75 C-10.00925781 11.76546875 -8.70601562 11.7809375 -7.36328125 11.796875 C-4 12 -4 12 -1 13 C-2.6044256 8.2815365 -2.6044256 8.2815365 -5.6875 4.5625 C-11.86429448 3.06003648 -17.11548868 4.03849623 -23 6 C-23.66 4.02 -24.32 2.04 -25 0 C-16.10985465 -3.53083787 -8.61476703 -4.72967601 0 0 Z M-20 19 C-21.39935013 21.79870027 -21.25265405 23.90498792 -21 27 C-20.10938785 28.97578739 -20.10938785 28.97578739 -18 30 C-13.46282273 31.04131937 -11.0978514 31.37285519 -6.6875 29.875 C-3.70455671 27.79387678 -2.42799089 26.33197873 -1 23 C-0.74803871 20.29046449 -0.74803871 20.29046449 -1 18 C-4.2134038 17.05265218 -7.15472447 16.83547579 -10.5 16.8125 C-11.4384375 16.79832031 -12.376875 16.78414063 -13.34375 16.76953125 C-16.09403256 17.00815871 -17.69569211 17.50743693 -20 19 Z " fill="#0064D4" transform="translate(556,442)"/>
<path d="M0 0 C4.63635933 2.65068624 7.36328486 6.04185904 10 10.6875 C11.64312496 17.11062484 11.29321361 22.69068998 8.03125 28.515625 C5.06101681 32.62559883 1.50568157 35.76893948 -3.3125 37.375 C-10.11475448 38.08041898 -15.99540353 38.19682616 -21.62109375 33.96875 C-26.76031289 29.12625251 -28.62413031 25.00003721 -28.9375 17.875 C-28.68762831 11.88502023 -27.45723593 7.75719476 -23.3125 3.375 C-16.36620482 -2.04311024 -8.23595395 -3.77350742 0 0 Z M-18.3125 7.375 C-21.0164918 11.1209759 -22.69242341 14.7578346 -22.4375 19.4375 C-21.56460914 24.08679236 -18.73137465 27.2463216 -15.3125 30.375 C-12.1142988 31.9741006 -8.7912562 31.73695151 -5.3125 31.375 C-0.74365383 29.50592657 1.49544622 26.75910756 3.6875 22.375 C4.52776553 17.63895792 4.15719217 14.31438435 2 10 C-0.80583368 6.81499961 -2.92012828 4.72510318 -7.234375 4.09375 C-11.70935815 3.89187106 -14.85882172 4.30506375 -18.3125 7.375 Z " fill="#0064D4" transform="translate(876.3125,440.625)"/>
<path d="M0 0 C4.18134365 2.50880619 6.7785669 6.30212813 9.23046875 10.42578125 C10.75434767 16.9784606 10.71833213 23.35593445 7.3125 29.2890625 C3.65308724 33.87068652 -1.40171377 37.11710251 -7.20703125 38.11328125 C-14.28967968 38.11328125 -19.56357124 36.67952126 -25.14453125 32.11328125 C-30.08448046 25.57118635 -30.94353945 20.14837778 -30.14453125 12.11328125 C-28.12097625 5.89229503 -23.36274178 1.93983317 -17.83203125 -1.19921875 C-11.76006232 -2.75251313 -5.79225035 -2.43945075 0 0 Z M-25.14453125 9.11328125 C-27.68330294 13.38584825 -27.69243715 17.25799202 -27.14453125 22.11328125 C-25.40620723 26.8067561 -24.26397024 28.02370201 -20.14453125 31.11328125 C-20.14453125 22.86328125 -20.14453125 14.61328125 -20.14453125 6.11328125 C-17.21578125 6.21640625 -14.28703125 6.31953125 -11.26953125 6.42578125 C-9.88725342 6.46312378 -9.88725342 6.46312378 -8.47705078 6.5012207 C-7.3881958 6.55088989 -7.3881958 6.55088989 -6.27734375 6.6015625 C-5.53371582 6.62774658 -4.79008789 6.65393066 -4.02392578 6.6809082 C-2.14453125 7.11328125 -2.14453125 7.11328125 -0.14453125 10.11328125 C0.23046875 13.11328125 0.23046875 13.11328125 -0.14453125 16.11328125 C-2.14453125 17.98828125 -2.14453125 17.98828125 -4.14453125 19.11328125 C-2.49285568 22.69191165 -0.36166633 25.86148313 1.85546875 29.11328125 C5.60764268 25.70221404 6.75487776 23.36060954 7.16796875 18.23828125 C7.00605291 13.38080596 5.6832097 9.9583058 2.203125 6.4453125 C-2.43865577 2.31383321 -5.6583704 0.7924242 -12.08984375 0.8984375 C-17.78952884 1.49441218 -21.50453116 4.96772559 -25.14453125 9.11328125 Z M-16.14453125 9.11328125 C-16.14453125 11.42328125 -16.14453125 13.73328125 -16.14453125 16.11328125 C-14.51962171 16.14026314 -12.89458492 16.15966882 -11.26953125 16.17578125 C-9.91214844 16.19318359 -9.91214844 16.19318359 -8.52734375 16.2109375 C-6.12767275 16.27577382 -6.12767275 16.27577382 -4.14453125 15.11328125 C-4.52357333 11.82252129 -4.52357333 11.82252129 -6.14453125 9.11328125 C-7.83062091 9.04122614 -9.51953784 9.02942057 -11.20703125 9.05078125 C-12.12613281 9.05980469 -13.04523437 9.06882812 -13.9921875 9.078125 C-14.70246094 9.08972656 -15.41273438 9.10132812 -16.14453125 9.11328125 Z M-16.14453125 20.11328125 C-16.14453125 23.74328125 -16.14453125 27.37328125 -16.14453125 31.11328125 C-17.46453125 31.44328125 -18.78453125 31.77328125 -20.14453125 32.11328125 C-13.51874841 35.02674605 -9.03500739 35.37752755 -2.14453125 33.11328125 C-2.14453125 28.67979848 -4.43076169 26.46574721 -7.12109375 23.078125 C-9.22231935 21.0377457 -10.22803999 20.42937193 -13.08203125 20.05078125 C-14.09265625 20.07140625 -15.10328125 20.09203125 -16.14453125 20.11328125 Z " fill="#0064D4" transform="translate(1033.14453125,110.88671875)"/>
<path d="M0 0 C2.31 0 4.62 0 7 0 C10.96 8.91 14.92 17.82 19 27 C21.98490904 20.43320012 24.85729698 14.05621066 27.3125 7.3125 C27.57611328 6.59900391 27.83972656 5.88550781 28.11132812 5.15039062 C28.74454772 3.43494117 29.37284372 1.71767543 30 0 C32.31 0 34.62 0 37 0 C36.32068301 4.14840784 35.00925598 7.79946836 33.453125 11.69921875 C33.20004578 12.33430862 32.94696655 12.9693985 32.68621826 13.62373352 C32.15035315 14.96509208 31.61232481 16.30558823 31.07226562 17.64526367 C30.26050867 19.66139993 29.45790166 21.68099982 28.65625 23.70117188 C20.44600931 44.26194948 20.44600931 44.26194948 16 48 C11.47258828 49.50913724 6.93573202 49.77429281 2.5 48 C2.005 47.67 1.51 47.34 1 47 C1.66 45.35 2.32 43.7 3 42 C4.2375 42.0825 5.475 42.165 6.75 42.25 C10.10506698 42.2737948 10.75447904 42.19641677 13.5 40 C13.995 39.34 14.49 38.68 15 38 C12.24692216 28.93899293 8.18100856 20.60241937 4.11914062 12.06640625 C3.59126953 10.94363281 3.06339844 9.82085937 2.51953125 8.6640625 C2.03589111 7.64779785 1.55225098 6.6315332 1.05395508 5.58447266 C0 3 0 3 0 0 Z " fill="#0064D4" transform="translate(699,440)"/>
<path d="M0 0 C2.31 0 4.62 0 7 0 C7.02505615 0.76666992 7.0501123 1.53333984 7.07592773 2.32324219 C7.19201423 5.79899283 7.31468366 9.27448092 7.4375 12.75 C7.47681641 13.9565625 7.51613281 15.163125 7.55664062 16.40625 C7.59853516 17.56640625 7.64042969 18.7265625 7.68359375 19.921875 C7.72025146 20.99018555 7.75690918 22.05849609 7.79467773 23.15917969 C8.03155461 26.66405139 8.03155461 26.66405139 9 30 C12.7169732 31.23899107 16.14438861 31.68393886 20 31 C23.21954645 28.46546343 24.70432435 26.88702695 26 23 C26.14835948 21.22833025 26.24770018 19.45232388 26.31640625 17.67578125 C26.35830078 16.64775391 26.40019531 15.61972656 26.44335938 14.56054688 C26.48267578 13.48869141 26.52199219 12.41683594 26.5625 11.3125 C26.60568359 10.22904297 26.64886719 9.14558594 26.69335938 8.02929688 C26.79946838 5.35299209 26.90152361 2.67659474 27 0 C28.98 0 30.96 0 33 0 C33 12.21 33 24.42 33 37 C31.02 37 29.04 37 27 37 C26.67 36.01 26.34 35.02 26 34 C25.236875 34.66 24.47375 35.32 23.6875 36 C19.15537243 39.01424162 14.23221353 38.75524511 9 38 C4.54431387 36.01085441 2.43363193 33.86580982 0.59326172 29.34741211 C-0.74525296 24.05119046 -0.29839219 18.48484367 -0.1875 13.0625 C-0.17396484 11.80630859 -0.16042969 10.55011719 -0.14648438 9.25585938 C-0.11128591 6.17012721 -0.06204305 3.08528976 0 0 Z " fill="#0064D4" transform="translate(618,440)"/>
<path d="M0 0 C2.31 0 4.62 0 7 0 C7.00410889 0.76143311 7.00821777 1.52286621 7.01245117 2.30737305 C7.0454114 5.76819666 7.11606054 9.22726571 7.1875 12.6875 C7.19620117 14.48477539 7.19620117 14.48477539 7.20507812 16.31835938 C7.1119215 23.36121624 7.1119215 23.36121624 10.33203125 29.29296875 C13.89667798 31.57371636 15.84444664 31.7420631 20 31 C22.63016161 28.8272578 24.47336894 27.05326212 26 24 C26.15306901 22.18828902 26.24946661 20.3716206 26.31640625 18.5546875 C26.35830078 17.47832031 26.40019531 16.40195312 26.44335938 15.29296875 C26.48267578 14.16503906 26.52199219 13.03710938 26.5625 11.875 C26.60568359 10.73933594 26.64886719 9.60367187 26.69335938 8.43359375 C26.7996604 5.62252232 26.90169405 2.81136055 27 0 C28.98 0 30.96 0 33 0 C33 12.21 33 24.42 33 37 C31.02 37 29.04 37 27 37 C26.67 36.01 26.34 35.02 26 34 C25.21625 34.66 24.4325 35.32 23.625 36 C19.31831097 38.85076343 14.98810806 38.76557988 10 38 C5.97420906 36.73067413 3.53828576 34.89130107 1.3203125 31.21875 C-0.97496451 25.46742661 -0.31182016 19.1414371 -0.1875 13.0625 C-0.17396484 11.80630859 -0.16042969 10.55011719 -0.14648438 9.25585938 C-0.11128591 6.17012721 -0.06204305 3.08528976 0 0 Z " fill="#0064D4" transform="translate(142,440)"/>
<path d="M0 0 C13.2 0 26.4 0 40 0 C40 1.98 40 3.96 40 6 C34.72 6 29.44 6 24 6 C24 20.52 24 35.04 24 50 C21.69 50 19.38 50 17 50 C17 35.48 17 20.96 17 6 C11.39 6 5.78 6 0 6 C0 4.02 0 2.04 0 0 Z " fill="#0064D4" transform="translate(94,427)"/>
<path d="M0 0 C0.72265625 2.109375 0.72265625 2.109375 1 4 C-0.6875 5.125 -0.6875 5.125 -3 6 C-4.67299959 5.34938905 -6.33859237 4.67966676 -8 4 C-10.69293903 3.81946777 -13.29642522 3.9083534 -16 4 C-16.66 5.32 -17.32 6.64 -18 8 C-14.70269421 12.04829358 -9.90392377 12.97509795 -5.12890625 14.62109375 C-1.89069853 16.04816906 -0.14269171 17.20159299 2 20 C3.07548846 24.42057388 2.5611407 28.05808526 0.25 31.9375 C-4.25232749 36.06463353 -8.05862646 36.47464315 -14.02734375 36.40234375 C-18.90666359 35.74193647 -22.83493579 33.529757 -27 31 C-26.34 29.35 -25.68 27.7 -25 26 C-22.76818244 26.49595946 -20.87773662 27.05938507 -18.8125 28.0625 C-14.92949201 29.356836 -11.06163236 29.54261493 -7 29 C-4.71271266 27.16116119 -4.71271266 27.16116119 -4.875 24.375 C-4.91625 23.59125 -4.9575 22.8075 -5 22 C-5.6290625 21.82984375 -6.258125 21.6596875 -6.90625 21.484375 C-21.41584158 17.37623762 -21.41584158 17.37623762 -25 12 C-25.44456411 7.40617081 -25.65588803 5.11743887 -23.3125 1.125 C-16.40228198 -5.22493007 -7.82601625 -3.84435886 0 0 Z " fill="#0064D4" transform="translate(457,442)"/>
<path d="M0 0 C0 2.31 0 4.62 0 7 C-0.69867188 7.17015625 -1.39734375 7.3403125 -2.1171875 7.515625 C-3.02726562 7.75796875 -3.93734375 8.0003125 -4.875 8.25 C-5.77992188 8.48203125 -6.68484375 8.7140625 -7.6171875 8.953125 C-10.10220956 9.79065703 -10.10220956 9.79065703 -11.25390625 11.87109375 C-14.23500931 20.3773826 -14.55349631 29.08167628 -15 38 C-16.98 38 -18.96 38 -21 38 C-21 25.79 -21 13.58 -21 1 C-19.02 1 -17.04 1 -15 1 C-14.67 2.98 -14.34 4.96 -14 7 C-13.2575 6.21625 -12.515 5.4325 -11.75 4.625 C-7.77938498 0.83486748 -5.49252472 -0.30514026 0 0 Z " fill="#0064D4" transform="translate(385,439)"/>
<path d="M0 0 C0 2.31 0 4.62 0 7 C-0.60328125 7.14695312 -1.2065625 7.29390625 -1.828125 7.4453125 C-6.1810584 8.6669422 -8.49925951 9.41162993 -11.5 12.9375 C-13.39581568 16.80812368 -14.10238893 20.04777863 -14.31640625 24.328125 C-14.35830078 25.12734375 -14.40019531 25.9265625 -14.44335938 26.75 C-14.50233398 27.9875 -14.50233398 27.9875 -14.5625 29.25 C-14.60568359 30.09046875 -14.64886719 30.9309375 -14.69335938 31.796875 C-14.79908543 33.86440671 -14.90001295 35.93218281 -15 38 C-16.98 38 -18.96 38 -21 38 C-21 25.79 -21 13.58 -21 1 C-19.02 1 -17.04 1 -15 1 C-14.67 2.65 -14.34 4.3 -14 6 C-13.071875 5.195625 -12.14375 4.39125 -11.1875 3.5625 C-7.58871053 0.44354913 -4.72485424 -0.12769876 0 0 Z " fill="#0064D4" transform="translate(917,439)"/>
<path d="M0 0 C1.98 0 3.96 0 6 0 C6 12.21 6 24.42 6 37 C4.02 37 2.04 37 0 37 C0 24.79 0 12.58 0 0 Z " fill="#0064D4" transform="translate(663,440)"/>
<path d="M0 0 C2.31 0 4.62 0 7 0 C7.11317227 12.05023529 7.03330247 23.98785879 6 36 C4.68 36 3.36 36 2 36 C0.34174162 32.68348324 0.61020624 28.96557392 0.4375 25.3125 C0.3950415 24.46776123 0.35258301 23.62302246 0.30883789 22.75268555 C-0.04582331 15.16350666 -0.10219047 7.59615854 0 0 Z " fill="#0064D4" transform="translate(964,427)"/>
<path d="M0 0 C1.32 0 2.64 0 4 0 C5.28811102 11.98403293 5.10026305 23.96380629 5 36 C2.69 36 0.38 36 -2 36 C-2.12452201 28.29347116 -1.95109333 20.6334176 -1.5625 12.9375 C-1.52326416 12.11660889 -1.48402832 11.29571777 -1.44360352 10.44995117 C-1.40162842 9.67111572 -1.35965332 8.89228027 -1.31640625 8.08984375 C-1.27974854 7.39753662 -1.24309082 6.70522949 -1.20532227 5.99194336 C-0.99177471 3.92020197 -0.5521888 2.00579004 0 0 Z " fill="#0064D4" transform="translate(80,441)"/>
<path d="M0 0 C2.31 0.66 4.62 1.32 7 2 C5.42739812 5.86002281 3.24884494 8.40092405 0 11 C-3.8125 11.3125 -3.8125 11.3125 -7 11 C-6.02262231 9.35310365 -5.0430468 7.70751146 -4.0625 6.0625 C-3.51722656 5.14597656 -2.97195313 4.22945313 -2.41015625 3.28515625 C-1 1 -1 1 0 0 Z " fill="#0064D4" transform="translate(670,424)"/>
<path d="M0 0 C1.98 0.66 3.96 1.32 6 2 C6 5.43413515 5.65525082 5.81954722 3.375 8.1875 C0.87236533 10.60075486 0.24721746 10.97253139 -3.375 11.375 C-4.24125 11.25125 -5.1075 11.1275 -6 11 C-4.54955729 6.89041233 -2.48889248 3.56741255 0 0 Z " fill="#0064D4" transform="translate(162,424)"/>
<path d="M0 0 C2.64 0 5.28 0 8 0 C8 2.64 8 5.28 8 8 C5.36 8 2.72 8 0 8 C0 5.36 0 2.72 0 0 Z " fill="#0064D4" transform="translate(78,427)"/>
<path d="M0 0 C2.31 0 4.62 0 7 0 C7 2.64 7 5.28 7 8 C4.69 8 2.38 8 0 8 C0 5.36 0 2.72 0 0 Z " fill="#0064D4" transform="translate(964,469)"/>
</svg>
